<svg width="3000" height="3000" viewBox="0 0 3000 3000" fill="none" xmlns="http://www.w3.org/2000/svg">
<g clip-path="url(#clip0_279_37)">
<path d="M3000 0H0V3000H3000V0Z" fill="#FFD700"/>
<path d="M2193.5 945.9L1482.7 1057.5V1023.1C1482.7 975.1 1439.9 938.5 1392.5 945.9L782.2 1041.7C731.5 1049.7 702.1 1103.6 722.9 1150.5L885.4 1517.6C894.1 1537.2 894.3 1559.6 886 1579.4L735.5 1939.3C711.9 1995.7 759.3 2056.1 819.7 2046.6L1482.6 1942.6V1977C1482.6 2025 1525.4 2061.6 1572.8 2054.2L2217.6 1953C2255.6 1947 2283.6 1914.3 2283.6 1875.8V1023.2C2283.6 975.2 2240.8 938.6 2193.4 946L2193.5 945.9Z" fill="#FF4700"/>
</g>
<defs>
<clipPath id="clip0_279_37">
<rect width="3000" height="3000" fill="white"/>
</clipPath>
</defs>
</svg>
