<svg width="5000" height="1400" viewBox="0 0 111 31" fill="none" xmlns="http://www.w3.org/2000/svg">
<g clip-path="url(#clip0_1_288)">
<path d="M14.6489 30.1489C22.7392 30.1489 29.2977 23.5903 29.2977 15.5C29.2977 7.40965 22.7392 0.851135 14.6489 0.851135C6.55852 0.851135 0 7.40965 0 15.5C0 23.5903 6.55852 30.1489 14.6489 30.1489Z" fill="#FFD900"/>
<path d="M21.4173 10.0938L14.4744 11.1838V10.8459C14.4744 10.3772 14.0602 10.0175 13.5915 10.0938L7.62954 11.0312C7.13907 11.1075 6.84478 11.6307 7.05187 12.0884L8.64319 15.6743C8.73039 15.8705 8.73039 16.0885 8.65409 16.2738L7.18267 19.7943C6.95378 20.3502 7.41156 20.9388 8.00013 20.8407L14.4744 19.827V20.1649C14.4744 20.6336 14.8886 20.9933 15.3573 20.917L21.6571 19.9251C22.0277 19.8706 22.3002 19.5437 22.3002 19.1731V10.8459C22.3002 10.3772 21.886 10.0175 21.4173 10.0938Z" fill="#FC5819"/>
<path d="M43.2533 6.37627H40.7355C40.6701 6.37627 40.6156 6.44166 40.6156 6.49616V6.98664C40.6156 7.10653 40.4957 7.17193 40.4303 7.05203C40.0597 6.62696 39.2641 6.19098 38.0433 6.19098C35.4711 6.19098 33.6945 8.33817 33.6945 10.7905C33.6945 13.3628 35.591 15.3901 38.0433 15.3901C39.2096 15.3901 39.9398 15.0195 40.3758 14.5945C40.4412 14.5291 40.5611 14.5945 40.5611 14.6598V14.7797C40.5611 16.5019 39.7001 17.1667 38.2286 17.1667C37.1823 17.1667 36.452 16.5564 36.2013 15.6953C36.2013 15.6299 36.1359 15.5754 36.0814 15.6299L33.749 16.3057C33.6836 16.3057 33.6291 16.3711 33.6836 16.4256C33.9887 18.0823 35.7109 19.6736 38.3485 19.6736C41.8472 19.6736 43.3732 17.3411 43.3732 14.6489V6.49616C43.3732 6.44166 43.3187 6.37627 43.2533 6.37627ZM38.5338 12.8832C37.3676 12.8832 36.5065 12.0876 36.5065 10.8014C36.5065 9.51531 37.4221 8.71965 38.5338 8.71965C39.6456 8.71965 40.5611 9.51531 40.5611 10.8014C40.5611 12.0876 39.7001 12.8832 38.5338 12.8832Z" fill="white"/>
<path d="M53.2481 14.2891V9.68957C53.2481 7.79306 52.1472 6.07095 49.0736 6.07095C46.3705 6.07095 45.1498 7.72767 44.9645 9.0792C44.9645 9.1446 45.0299 9.19909 45.0844 9.19909L47.3515 9.68957C47.4169 9.68957 47.4714 9.68957 47.4714 9.56968C47.5913 8.89391 48.1471 8.28354 49.0627 8.28354C49.9782 8.28354 50.4142 8.77402 50.4142 9.32989C50.4142 9.63507 50.2289 9.88576 49.7385 9.94026L47.5259 10.3108C45.989 10.5615 44.7683 11.4771 44.7683 13.1338C44.7683 14.6052 45.9346 15.9568 48.0163 15.9568C49.1172 15.9568 49.9128 15.5317 50.4687 14.9104C50.5341 14.845 50.654 14.845 50.654 14.9758C50.654 15.281 50.7194 15.4663 50.7194 15.5862C50.7194 15.6516 50.7848 15.7061 50.8393 15.7061H53.1718C53.2372 15.7061 53.2917 15.6407 53.2917 15.5862C53.2481 15.39 53.2481 14.845 53.2481 14.2891ZM50.4251 12.0874C50.4251 13.5589 49.5641 13.9295 48.703 13.9295C47.9073 13.9295 47.6022 13.439 47.6022 12.9485C47.6022 12.2727 48.0272 12.033 48.6485 11.9022L50.3052 11.6515C50.3706 11.6515 50.4251 11.7169 50.4251 11.7714V12.0874Z" fill="white"/>
<path d="M66.1856 6.07095C64.954 6.07095 64.1038 6.44153 63.3626 7.42248C63.2972 7.48788 63.1774 7.48788 63.1774 7.42248C62.6869 6.56143 61.7713 6.13635 60.4743 6.13635C59.5587 6.13635 58.5778 6.56143 57.9565 7.1827C57.8911 7.24809 57.7712 7.1827 57.7712 7.1173V6.56143C57.7712 6.49603 57.7058 6.44153 57.6513 6.44153H55.1336C55.0682 6.44153 55.0137 6.50693 55.0137 6.56143V15.7061C55.0137 15.7715 55.0791 15.826 55.1336 15.826H57.7712C57.8366 15.826 57.8911 15.7606 57.8911 15.7061V10.4307C57.8911 9.56968 58.447 8.77402 59.4279 8.77402C60.4743 8.77402 60.9648 9.44978 60.9648 10.3653V15.7061C60.9648 15.7715 61.0302 15.826 61.0847 15.826H63.6569C63.7223 15.826 63.7768 15.7606 63.7768 15.7061V10.4307C63.7768 9.56968 64.3327 8.83941 65.3681 8.83941C66.4145 8.83941 66.8396 9.51518 66.8396 10.4307V15.7606C66.8396 15.826 66.905 15.8805 66.9595 15.8805H69.4772C69.5426 15.8805 69.5971 15.8151 69.5971 15.7606V9.80946C69.6189 7.1173 67.9622 6.07095 66.1856 6.07095Z" fill="white"/>
<path d="M75.69 6.07095C73.2376 6.07095 71.025 7.96746 71.025 11.0411C71.025 14.1692 73.3575 16.0657 75.9298 16.0657C78.2623 16.0657 79.7337 14.7796 80.2242 13.1883C80.2242 13.1229 80.2242 13.0684 80.1588 13.0684L78.0116 12.458C77.9462 12.458 77.8917 12.458 77.8917 12.5234C77.5865 13.1992 77.0306 13.6243 76.0497 13.6243C75.0033 13.6243 74.0878 12.9485 73.9025 11.9676C73.9025 11.9022 73.9679 11.8477 74.0224 11.8477H80.3332C80.3986 11.8477 80.453 11.7823 80.453 11.7278C80.453 11.5425 80.5184 11.2373 80.5184 10.9321C80.4095 7.84756 78.6328 6.07095 75.69 6.07095ZM77.4666 9.94026H73.9679C73.9025 9.94026 73.848 9.87486 73.848 9.82036C73.9679 9.1446 74.5891 8.34894 75.69 8.34894C76.9761 8.34894 77.4666 9.0901 77.5865 9.82036C77.5865 9.87486 77.5865 9.94026 77.4666 9.94026Z" fill="white"/>
<path d="M87.396 6.13635C86.2951 6.13635 85.3687 6.50693 84.8782 6.9974C84.8128 7.0628 84.6929 6.9974 84.6929 6.93201V2.21254C84.6929 2.14715 84.6275 2.09265 84.573 2.09265H82.0008C81.9354 2.09265 81.8809 2.15805 81.8809 2.21254V15.6407C81.8809 15.7061 81.9463 15.7606 82.0008 15.7606H84.5185C84.5839 15.7606 84.6384 15.6952 84.6384 15.6407V15.0848C84.6384 14.9649 84.7583 14.8995 84.8237 15.0194C85.3142 15.5753 86.1752 16.0003 87.2761 16.0003C89.9138 16.0003 91.7558 13.9186 91.7558 11.0956C91.7558 8.21814 90.1535 6.13635 87.396 6.13635ZM86.7856 13.3736C85.6848 13.3736 84.6384 12.5779 84.6384 11.0411C84.6384 9.44978 85.6848 8.70861 86.7856 8.70861C87.8865 8.70861 88.8674 9.44978 88.8674 11.0411C88.9328 12.6324 87.8865 13.3736 86.7856 13.3736Z" fill="white"/>
<path d="M101.195 14.2891V9.68957C101.195 7.79306 100.094 6.07095 97.0202 6.07095C94.3172 6.07095 93.0964 7.72767 92.9111 9.0792C92.9111 9.1446 92.9765 9.19909 93.031 9.19909L95.2981 9.68957C95.3635 9.68957 95.418 9.68957 95.418 9.56968C95.5379 8.89391 96.0938 8.28354 97.0093 8.28354C97.9249 8.28354 98.3609 8.77402 98.3609 9.32989C98.3609 9.63507 98.1756 9.88576 97.6851 9.94026L95.4725 10.3108C93.9357 10.5615 92.715 11.4771 92.715 13.1338C92.715 14.6052 93.8812 15.9568 95.963 15.9568C97.0638 15.9568 97.8595 15.5317 98.4154 14.9104C98.4808 14.845 98.6007 14.845 98.6007 14.9758C98.6007 15.281 98.6661 15.4663 98.6661 15.5862C98.6661 15.6516 98.7315 15.7061 98.786 15.7061H101.118C101.184 15.7061 101.238 15.6407 101.238 15.5862C101.195 15.39 101.195 14.845 101.195 14.2891ZM98.3718 12.0874C98.3718 13.5589 97.5107 13.9295 96.6497 13.9295C95.854 13.9295 95.5488 13.439 95.5488 12.9485C95.5488 12.2727 95.9739 12.033 96.5952 11.9022L98.2519 11.6515C98.3173 11.6515 98.3718 11.7169 98.3718 11.7714V12.0874Z" fill="white"/>
<path d="M105.729 2.09265H103.091C103.026 2.09265 102.971 2.15805 102.971 2.21254V15.6407C102.971 15.7061 103.037 15.7606 103.091 15.7606H105.729C105.794 15.7606 105.849 15.6952 105.849 15.6407V2.21254C105.86 2.14715 105.794 2.09265 105.729 2.09265Z" fill="white"/>
<path d="M110.514 2.09265H107.876C107.811 2.09265 107.756 2.15805 107.756 2.21254V15.6407C107.756 15.7061 107.821 15.7606 107.876 15.7606H110.514C110.579 15.7606 110.634 15.6952 110.634 15.6407V2.21254C110.634 2.14715 110.579 2.09265 110.514 2.09265Z" fill="white"/>
<path d="M36.6889 28.6736H34.3438V21.7534H36.7362C37.4232 21.7534 38.0134 21.8919 38.5068 22.169C39.0023 22.4438 39.3831 22.8392 39.6489 23.355C39.9147 23.8709 40.0476 24.4881 40.0476 25.2067C40.0476 25.9276 39.9136 26.5471 39.6455 27.0652C39.3797 27.5833 38.9956 27.9809 38.4932 28.258C37.9932 28.535 37.3917 28.6736 36.6889 28.6736ZM35.5974 27.5889H36.628C37.1101 27.5889 37.5122 27.5011 37.8343 27.3254C38.1565 27.1474 38.3986 26.8827 38.5608 26.5313C38.723 26.1776 38.8041 25.7361 38.8041 25.2067C38.8041 24.6773 38.723 24.2381 38.5608 23.8889C38.3986 23.5375 38.1587 23.275 37.8411 23.1016C37.5257 22.9259 37.1338 22.838 36.6652 22.838H35.5974V27.5889ZM43.1969 28.775C42.6765 28.775 42.2271 28.6668 41.8487 28.4506C41.4725 28.2321 41.183 27.9234 40.9803 27.5247C40.7775 27.1237 40.6762 26.6518 40.6762 26.1089C40.6762 25.575 40.7775 25.1065 40.9803 24.7032C41.1853 24.2978 41.4713 23.9824 41.8385 23.7571C42.2057 23.5296 42.6371 23.4158 43.1327 23.4158C43.4526 23.4158 43.7544 23.4677 44.0383 23.5713C44.3244 23.6726 44.5767 23.8303 44.7952 24.0443C45.0159 24.2583 45.1894 24.5309 45.3155 24.8621C45.4417 25.1909 45.5048 25.5829 45.5048 26.038V26.413H41.2506V25.5885H44.3322C44.33 25.3543 44.2793 25.1459 44.1802 24.9634C44.0811 24.7787 43.9425 24.6334 43.7646 24.5275C43.5889 24.4217 43.3839 24.3687 43.1496 24.3687C42.8995 24.3687 42.6799 24.4295 42.4907 24.5512C42.3015 24.6706 42.1539 24.8283 42.048 25.0242C41.9444 25.218 41.8915 25.4309 41.8892 25.6629V26.3826C41.8892 26.6845 41.9444 26.9435 42.0548 27.1598C42.1652 27.3738 42.3195 27.5382 42.5177 27.6531C42.716 27.7658 42.948 27.8221 43.2138 27.8221C43.3918 27.8221 43.5528 27.7973 43.697 27.7477C43.8412 27.6959 43.9662 27.6205 44.0721 27.5213C44.1779 27.4222 44.2579 27.2995 44.312 27.153L45.4541 27.2814C45.382 27.5833 45.2446 27.8469 45.0418 28.0721C44.8414 28.2951 44.5845 28.4686 44.2714 28.5925C43.9583 28.7141 43.6001 28.775 43.1969 28.775ZM50.7415 23.4834L48.8931 28.6736H47.5415L45.6932 23.4834H46.9975L48.1903 27.3389H48.2444L49.4405 23.4834H50.7415ZM53.4236 28.775C52.9033 28.775 52.4538 28.6668 52.0754 28.4506C51.6992 28.2321 51.4097 27.9234 51.207 27.5247C51.0042 27.1237 50.9029 26.6518 50.9029 26.1089C50.9029 25.575 51.0042 25.1065 51.207 24.7032C51.412 24.2978 51.6981 23.9824 52.0653 23.7571C52.4324 23.5296 52.8638 23.4158 53.3594 23.4158C53.6793 23.4158 53.9812 23.4677 54.265 23.5713C54.5511 23.6726 54.8034 23.8303 55.0219 24.0443C55.2427 24.2583 55.4161 24.5309 55.5423 24.8621C55.6684 25.1909 55.7315 25.5829 55.7315 26.038V26.413H51.4773V25.5885H54.559C54.5567 25.3543 54.506 25.1459 54.4069 24.9634C54.3078 24.7787 54.1693 24.6334 53.9913 24.5275C53.8156 24.4217 53.6106 24.3687 53.3763 24.3687C53.1263 24.3687 52.9066 24.4295 52.7174 24.5512C52.5282 24.6706 52.3806 24.8283 52.2748 25.0242C52.1711 25.218 52.1182 25.4309 52.1159 25.6629V26.3826C52.1159 26.6845 52.1711 26.9435 52.2815 27.1598C52.3919 27.3738 52.5462 27.5382 52.7444 27.6531C52.9427 27.7658 53.1747 27.8221 53.4405 27.8221C53.6185 27.8221 53.7795 27.7973 53.9237 27.7477C54.0679 27.6959 54.1929 27.6205 54.2988 27.5213C54.4047 27.4222 54.4846 27.2995 54.5387 27.153L55.6808 27.2814C55.6087 27.5833 55.4713 27.8469 55.2686 28.0721C55.0681 28.2951 54.8113 28.4686 54.4981 28.5925C54.185 28.7141 53.8268 28.775 53.4236 28.775ZM57.7041 21.7534V28.6736H56.4808V21.7534H57.7041ZM60.9404 28.775C60.4335 28.775 59.9942 28.6634 59.6226 28.4404C59.2509 28.2174 58.9625 27.9054 58.7575 27.5044C58.5548 27.1035 58.4534 26.6349 58.4534 26.0988C58.4534 25.5626 58.5548 25.093 58.7575 24.6897C58.9625 24.2865 59.2509 23.9734 59.6226 23.7504C59.9942 23.5273 60.4335 23.4158 60.9404 23.4158C61.4472 23.4158 61.8865 23.5273 62.2582 23.7504C62.6299 23.9734 62.9171 24.2865 63.1198 24.6897C63.3248 25.093 63.4273 25.5626 63.4273 26.0988C63.4273 26.6349 63.3248 27.1035 63.1198 27.5044C62.9171 27.9054 62.6299 28.2174 62.2582 28.4404C61.8865 28.6634 61.4472 28.775 60.9404 28.775ZM60.9471 27.795C61.222 27.795 61.4517 27.7196 61.6364 27.5686C61.8212 27.4155 61.9586 27.2105 62.0487 26.9537C62.141 26.6969 62.1872 26.4108 62.1872 26.0954C62.1872 25.7778 62.141 25.4906 62.0487 25.2337C61.9586 24.9747 61.8212 24.7686 61.6364 24.6154C61.4517 24.4622 61.222 24.3856 60.9471 24.3856C60.6655 24.3856 60.4313 24.4622 60.2443 24.6154C60.0596 24.7686 59.921 24.9747 59.8287 25.2337C59.7386 25.4906 59.6935 25.7778 59.6935 26.0954C59.6935 26.4108 59.7386 26.6969 59.8287 26.9537C59.921 27.2105 60.0596 27.4155 60.2443 27.5686C60.4313 27.7196 60.6655 27.795 60.9471 27.795ZM64.1801 30.6199V23.4834H65.383V24.3417H65.454C65.517 24.2155 65.606 24.0815 65.7209 23.9396C65.8358 23.7954 65.9912 23.6726 66.1872 23.5713C66.3832 23.4677 66.6332 23.4158 66.9373 23.4158C67.3383 23.4158 67.6999 23.5183 68.022 23.7233C68.3464 23.9261 68.6032 24.2268 68.7924 24.6255C68.9839 25.022 69.0796 25.5086 69.0796 26.0853C69.0796 26.6552 68.9861 27.1395 68.7992 27.5382C68.6122 27.937 68.3577 28.2411 68.0355 28.4506C67.7134 28.6601 67.3485 28.7648 66.9407 28.7648C66.6434 28.7648 66.3967 28.7153 66.2007 28.6161C66.0047 28.517 65.847 28.3976 65.7277 28.258C65.6105 28.116 65.5193 27.982 65.454 27.8559H65.4033V30.6199H64.1801ZM65.3796 26.0785C65.3796 26.4142 65.4269 26.7081 65.5215 26.9604C65.6184 27.2127 65.7569 27.4098 65.9372 27.5518C66.1196 27.6914 66.3404 27.7613 66.5994 27.7613C66.8698 27.7613 67.0962 27.6892 67.2786 27.545C67.4611 27.3986 67.5985 27.1992 67.6909 26.9469C67.7855 26.6924 67.8328 26.4029 67.8328 26.0785C67.8328 25.7564 67.7866 25.4703 67.6942 25.2202C67.6019 24.9702 67.4645 24.7742 67.282 24.6323C67.0995 24.4904 66.872 24.4194 66.5994 24.4194C66.3381 24.4194 66.1162 24.4881 65.9338 24.6255C65.7513 24.7629 65.6128 24.9555 65.5182 25.2033C65.4258 25.4511 65.3796 25.7429 65.3796 26.0785ZM72.1394 28.775C71.619 28.775 71.1696 28.6668 70.7912 28.4506C70.415 28.2321 70.1255 27.9234 69.9228 27.5247C69.72 27.1237 69.6187 26.6518 69.6187 26.1089C69.6187 25.575 69.72 25.1065 69.9228 24.7032C70.1278 24.2978 70.4138 23.9824 70.781 23.7571C71.1482 23.5296 71.5796 23.4158 72.0752 23.4158C72.3951 23.4158 72.6969 23.4677 72.9808 23.5713C73.2669 23.6726 73.5192 23.8303 73.7377 24.0443C73.9584 24.2583 74.1319 24.5309 74.258 24.8621C74.3842 25.1909 74.4473 25.5829 74.4473 26.038V26.413H70.1931V25.5885H73.2747C73.2725 25.3543 73.2218 25.1459 73.1227 24.9634C73.0236 24.7787 72.885 24.6334 72.7071 24.5275C72.5314 24.4217 72.3264 24.3687 72.0921 24.3687C71.842 24.3687 71.6224 24.4295 71.4332 24.5512C71.244 24.6706 71.0964 24.8283 70.9905 25.0242C70.8869 25.218 70.834 25.4309 70.8317 25.6629V26.3826C70.8317 26.6845 70.8869 26.9435 70.9973 27.1598C71.1077 27.3738 71.262 27.5382 71.4602 27.6531C71.6585 27.7658 71.8905 27.8221 72.1563 27.8221C72.3343 27.8221 72.4953 27.7973 72.6395 27.7477C72.7837 27.6959 72.9087 27.6205 73.0146 27.5213C73.1204 27.4222 73.2004 27.2995 73.2545 27.153L74.3966 27.2814C74.3245 27.5833 74.1871 27.8469 73.9843 28.0721C73.7839 28.2951 73.527 28.4686 73.2139 28.5925C72.9008 28.7141 72.5426 28.775 72.1394 28.775ZM75.1966 28.6736V23.4834H76.3827V24.3484H76.4367C76.5313 24.0488 76.6935 23.8179 76.9233 23.6557C77.1553 23.4913 77.42 23.4091 77.7174 23.4091C77.785 23.4091 77.8604 23.4125 77.9438 23.4192C78.0294 23.4237 78.1003 23.4316 78.1566 23.4429V24.5681C78.1048 24.5501 78.0226 24.5343 77.91 24.5208C77.7996 24.505 77.6926 24.4971 77.589 24.4971C77.366 24.4971 77.1655 24.5456 76.9875 24.6424C76.8118 24.737 76.6733 24.8688 76.5719 25.0378C76.4705 25.2067 76.4198 25.4016 76.4198 25.6223V28.6736H75.1966ZM82.786 24.8553L81.6709 24.9769C81.6393 24.8643 81.5842 24.7584 81.5053 24.6593C81.4287 24.5602 81.3251 24.4802 81.1944 24.4194C81.0638 24.3586 80.9038 24.3282 80.7146 24.3282C80.4601 24.3282 80.2461 24.3834 80.0726 24.4937C79.9014 24.6041 79.8169 24.7472 79.8192 24.9229C79.8169 25.0738 79.8721 25.1966 79.9848 25.2912C80.0996 25.3858 80.2889 25.4635 80.5524 25.5243L81.4377 25.7136C81.9288 25.8194 82.2937 25.9873 82.5325 26.217C82.7736 26.4468 82.8952 26.7475 82.8975 27.1192C82.8952 27.4459 82.7995 27.7342 82.6102 27.9843C82.4233 28.2321 82.1631 28.4258 81.8297 28.5655C81.4963 28.7051 81.1133 28.775 80.6808 28.775C80.0456 28.775 79.5342 28.642 79.1468 28.3762C78.7593 28.1082 78.5284 27.7353 78.4541 27.2578L79.6469 27.1429C79.7009 27.3772 79.8158 27.554 79.9915 27.6734C80.1672 27.7928 80.3959 27.8525 80.6775 27.8525C80.968 27.8525 81.2012 27.7928 81.3769 27.6734C81.5549 27.554 81.6439 27.4065 81.6439 27.2307C81.6439 27.0821 81.5864 26.9593 81.4715 26.8624C81.3589 26.7656 81.1832 26.6912 80.9444 26.6394L80.0591 26.4536C79.5613 26.3499 79.1929 26.1754 78.9542 25.9298C78.7154 25.682 78.5971 25.3689 78.5994 24.9905C78.5971 24.6706 78.6838 24.3935 78.8595 24.1592C79.0375 23.9227 79.2842 23.7402 79.5995 23.6118C79.9172 23.4812 80.2832 23.4158 80.6977 23.4158C81.306 23.4158 81.7846 23.5454 82.1338 23.8044C82.4852 24.0635 82.7026 24.4138 82.786 24.8553ZM90.3855 23.9632C90.3292 23.7808 90.2515 23.6175 90.1523 23.4733C90.0555 23.3269 89.9383 23.2018 89.8009 23.0982C89.6658 22.9946 89.5103 22.9169 89.3346 22.8651C89.1589 22.811 88.9674 22.784 88.7602 22.784C88.3885 22.784 88.0574 22.8774 87.7668 23.0644C87.4762 23.2514 87.2475 23.5262 87.0808 23.8889C86.9164 24.2493 86.8342 24.6886 86.8342 25.2067C86.8342 25.7293 86.9164 26.172 87.0808 26.5347C87.2453 26.8973 87.4739 27.1733 87.7668 27.3625C88.0596 27.5495 88.3998 27.643 88.7872 27.643C89.1386 27.643 89.4428 27.5754 89.6996 27.4402C89.9586 27.3051 90.158 27.1136 90.2976 26.8658C90.4373 26.6158 90.5071 26.3229 90.5071 25.9873L90.791 26.0312H88.9122V25.0513H91.7202V25.8825C91.7202 26.475 91.5941 26.9875 91.3418 27.42C91.0895 27.8525 90.7425 28.1859 90.301 28.4202C89.8595 28.6522 89.3526 28.7682 88.7805 28.7682C88.143 28.7682 87.5832 28.6252 87.1011 28.3391C86.6213 28.0507 86.2462 27.6419 85.9759 27.1125C85.7078 26.5808 85.5738 25.9501 85.5738 25.2202C85.5738 24.6616 85.6526 24.1626 85.8103 23.7233C85.9703 23.2841 86.1933 22.9112 86.4794 22.6049C86.7654 22.2963 87.1011 22.062 87.4863 21.902C87.8715 21.7398 88.2905 21.6588 88.7433 21.6588C89.1263 21.6588 89.4833 21.7151 89.8144 21.8277C90.1456 21.9381 90.4396 22.0958 90.6964 22.3008C90.9554 22.5058 91.1683 22.749 91.335 23.0306C91.5017 23.3122 91.611 23.6231 91.6628 23.9632H90.3855ZM95.901 26.4907V23.4834H97.1242V28.6736H95.9381V27.7511H95.8841C95.7669 28.0417 95.5743 28.2794 95.3063 28.4641C95.0404 28.6488 94.7127 28.7412 94.323 28.7412C93.9828 28.7412 93.6821 28.6657 93.4208 28.5148C93.1617 28.3616 92.959 28.1397 92.8125 27.8491C92.6661 27.5563 92.5929 27.2026 92.5929 26.7881V23.4834H93.8161V26.5989C93.8161 26.9278 93.9062 27.1891 94.0864 27.3828C94.2666 27.5765 94.5032 27.6734 94.796 27.6734C94.9762 27.6734 95.1508 27.6295 95.3198 27.5416C95.4887 27.4538 95.6273 27.3231 95.7354 27.1496C95.8458 26.9739 95.901 26.7543 95.901 26.4907ZM98.0965 28.6736V23.4834H99.3197V28.6736H98.0965ZM98.7115 22.7468C98.5178 22.7468 98.3511 22.6826 98.2114 22.5542C98.0718 22.4235 98.0019 22.267 98.0019 22.0845C98.0019 21.8998 98.0718 21.7432 98.2114 21.6148C98.3511 21.4842 98.5178 21.4188 98.7115 21.4188C98.9075 21.4188 99.0742 21.4842 99.2116 21.6148C99.3513 21.7432 99.4211 21.8998 99.4211 22.0845C99.4211 22.267 99.3513 22.4235 99.2116 22.5542C99.0742 22.6826 98.9075 22.7468 98.7115 22.7468ZM102.218 28.7648C101.81 28.7648 101.445 28.6601 101.123 28.4506C100.801 28.2411 100.547 27.937 100.36 27.5382C100.173 27.1395 100.079 26.6552 100.079 26.0853C100.079 25.5086 100.174 25.022 100.363 24.6255C100.555 24.2268 100.812 23.9261 101.137 23.7233C101.461 23.5183 101.823 23.4158 102.222 23.4158C102.526 23.4158 102.776 23.4677 102.972 23.5713C103.168 23.6726 103.323 23.7954 103.438 23.9396C103.553 24.0815 103.642 24.2155 103.705 24.3417H103.756V21.7534H104.982V28.6736H103.779V27.8559H103.705C103.642 27.982 103.551 28.116 103.431 28.258C103.312 28.3976 103.154 28.517 102.958 28.6161C102.762 28.7153 102.516 28.7648 102.218 28.7648ZM102.559 27.7613C102.818 27.7613 103.039 27.6914 103.222 27.5518C103.404 27.4098 103.543 27.2127 103.637 26.9604C103.732 26.7081 103.779 26.4142 103.779 26.0785C103.779 25.7429 103.732 25.4511 103.637 25.2033C103.545 24.9555 103.408 24.7629 103.225 24.6255C103.045 24.4881 102.823 24.4194 102.559 24.4194C102.287 24.4194 102.059 24.4904 101.877 24.6323C101.694 24.7742 101.557 24.9702 101.465 25.2202C101.372 25.4703 101.326 25.7564 101.326 26.0785C101.326 26.4029 101.372 26.6924 101.465 26.9469C101.559 27.1992 101.698 27.3986 101.88 27.545C102.065 27.6892 102.291 27.7613 102.559 27.7613ZM108.298 28.775C107.778 28.775 107.328 28.6668 106.95 28.4506C106.573 28.2321 106.284 27.9234 106.081 27.5247C105.879 27.1237 105.777 26.6518 105.777 26.1089C105.777 25.575 105.879 25.1065 106.081 24.7032C106.286 24.2978 106.572 23.9824 106.94 23.7571C107.307 23.5296 107.738 23.4158 108.234 23.4158C108.554 23.4158 108.855 23.4677 109.139 23.5713C109.425 23.6726 109.678 23.8303 109.896 24.0443C110.117 24.2583 110.29 24.5309 110.417 24.8621C110.543 25.1909 110.606 25.5829 110.606 26.038V26.413H106.352V25.5885H109.433C109.431 25.3543 109.38 25.1459 109.281 24.9634C109.182 24.7787 109.044 24.6334 108.866 24.5275C108.69 24.4217 108.485 24.3687 108.251 24.3687C108.001 24.3687 107.781 24.4295 107.592 24.5512C107.402 24.6706 107.255 24.8283 107.149 25.0242C107.045 25.218 106.992 25.4309 106.99 25.6629V26.3826C106.99 26.6845 107.045 26.9435 107.156 27.1598C107.266 27.3738 107.42 27.5382 107.619 27.6531C107.817 27.7658 108.049 27.8221 108.315 27.8221C108.493 27.8221 108.654 27.7973 108.798 27.7477C108.942 27.6959 109.067 27.6205 109.173 27.5213C109.279 27.4222 109.359 27.2995 109.413 27.153L110.555 27.2814C110.483 27.5833 110.346 27.8469 110.143 28.0721C109.942 28.2951 109.686 28.4686 109.372 28.5925C109.059 28.7141 108.701 28.775 108.298 28.775Z" fill="white"/>
</g>
<defs>
<clipPath id="clip0_1_288">
<rect width="111" height="31" fill="white"/>
</clipPath>
</defs>
</svg>
