<svg width="1965" height="519" viewBox="0 0 1965 519" fill="none" xmlns="http://www.w3.org/2000/svg">
<path d="M258.893 518.147C401.747 518.147 517.554 402.347 517.554 259.5C517.554 116.653 401.747 0.853027 258.893 0.853027C116.039 0.853027 0.23291 116.653 0.23291 259.5C0.23291 402.347 116.039 518.147 258.893 518.147Z" fill="#FFD800"/>
<path d="M772.108 181.495H726.945C724.892 181.495 724.892 183.548 724.892 183.548V191.759C724.892 193.812 722.84 195.864 720.787 193.812C714.628 185.601 700.258 179.442 677.677 179.442C632.514 179.442 599.668 218.445 599.668 261.552C599.668 306.713 632.514 343.663 677.677 343.663C698.205 343.663 710.522 337.504 718.734 329.293C720.787 327.241 722.84 329.293 722.84 331.346V333.399C722.84 364.19 708.47 376.507 681.782 376.507C663.307 376.507 650.99 366.243 646.884 349.821C646.884 347.768 644.831 347.768 644.831 347.768L603.774 360.085C601.721 360.085 601.721 362.137 601.721 362.137C607.879 390.876 636.619 419.614 683.835 419.614C745.421 419.614 772.108 378.559 772.108 331.346V187.653C774.161 181.495 772.108 181.495 772.108 181.495ZM687.941 296.449C667.412 296.449 653.042 282.08 653.042 259.5C653.042 236.919 669.465 222.55 687.941 222.55C706.417 222.55 722.84 236.919 722.84 259.5C722.84 282.08 708.47 296.449 687.941 296.449Z" fill="white"/>
<path d="M948.654 321.082V238.972C948.654 206.128 928.125 175.337 874.751 175.337C827.535 175.337 804.954 204.075 802.901 228.708C802.901 230.761 804.954 230.761 804.954 230.761L846.011 238.972C848.064 238.972 848.064 238.972 848.064 236.919C850.117 224.603 860.381 214.339 876.804 214.339C893.227 214.339 901.438 222.55 901.438 232.814C901.438 238.972 897.333 243.078 889.121 243.078L850.117 249.236C823.43 253.341 800.848 269.764 800.848 298.502C800.848 325.188 821.377 347.768 858.328 347.768C878.857 347.768 891.174 339.557 901.438 329.293C903.491 327.241 905.544 327.241 905.544 331.346C905.544 337.504 907.597 339.557 907.597 341.61C903.491 345.715 905.544 345.715 905.544 345.715H946.601C948.654 345.715 948.654 343.663 948.654 343.663C948.654 339.557 948.654 331.346 948.654 321.082ZM899.385 282.08C899.385 308.766 885.015 314.924 868.592 314.924C854.222 314.924 848.064 306.713 848.064 298.502C848.064 286.186 856.275 282.08 866.54 280.027L895.28 275.922C897.333 275.922 897.332 277.975 897.332 277.975L899.385 282.08Z" fill="white"/>
<path d="M1178.57 175.337C1155.99 175.337 1141.62 181.495 1129.31 199.97C1127.25 202.023 1125.2 202.023 1125.2 199.97C1116.99 185.601 1100.57 177.39 1077.98 177.39C1061.56 177.39 1045.14 185.601 1032.82 195.864C1030.77 197.917 1028.72 195.864 1028.72 193.812V183.548C1028.72 181.495 1026.66 181.495 1026.66 181.495H981.5C979.447 181.495 979.447 183.548 979.447 183.548V345.715C979.447 347.768 981.5 347.768 981.5 347.768H1028.72C1030.77 347.768 1030.77 345.715 1030.77 345.715V251.289C1030.77 236.919 1041.03 222.55 1057.46 222.55C1075.93 222.55 1084.14 234.867 1084.14 251.289V345.715C1084.14 347.768 1086.2 347.768 1086.2 347.768H1131.36C1133.41 347.768 1133.41 345.715 1133.41 345.715V251.289C1133.41 236.919 1143.68 222.55 1162.15 222.55C1180.63 222.55 1188.84 234.867 1188.84 251.289V345.715C1188.84 347.768 1190.89 347.768 1190.89 347.768H1236.05C1238.11 347.768 1238.11 345.715 1238.11 345.715V241.025C1238.11 193.812 1209.37 175.337 1178.57 175.337Z" fill="white"/>
<path d="M1346.91 175.337C1303.8 175.337 1264.79 208.181 1264.79 263.605C1264.79 319.03 1305.85 351.874 1351.01 351.874C1392.07 351.874 1418.76 329.293 1426.97 300.555C1426.97 298.502 1426.97 298.502 1424.92 298.502L1385.91 288.238C1383.86 288.238 1383.86 288.238 1383.86 290.291C1377.7 302.608 1369.49 310.819 1351.01 310.819C1332.54 310.819 1316.12 298.502 1312.01 282.08C1312.01 280.027 1314.06 280.027 1314.06 280.027H1426.97C1429.02 280.027 1429.02 277.975 1429.02 277.975C1429.02 273.869 1431.08 269.764 1431.08 263.605C1429.02 206.128 1398.23 175.337 1346.91 175.337ZM1377.7 243.078H1316.12C1314.06 243.078 1314.06 241.025 1314.06 241.025C1316.12 228.708 1326.38 214.339 1346.91 214.339C1369.49 214.339 1377.7 226.656 1379.75 241.025C1379.75 243.078 1379.75 243.078 1377.7 243.078Z" fill="white"/>
<path d="M1554.25 175.337C1533.72 175.337 1519.35 181.495 1509.08 189.706C1507.03 191.759 1504.98 189.706 1504.98 187.654V103.491C1504.98 101.438 1502.93 101.438 1502.93 101.438H1457.76C1455.71 101.438 1455.71 103.491 1455.71 103.491V345.715C1455.71 347.768 1457.76 347.768 1457.76 347.768H1502.93C1504.98 347.768 1504.98 345.715 1504.98 345.715V335.452C1504.98 333.399 1507.03 331.346 1509.08 333.399C1517.3 343.663 1533.72 349.821 1552.19 349.821C1599.41 349.821 1632.26 312.871 1632.26 263.605C1630.2 212.287 1603.52 175.337 1554.25 175.337ZM1541.93 304.66C1521.4 304.66 1502.93 290.291 1502.93 263.605C1502.93 234.867 1521.4 222.55 1541.93 222.55C1562.46 222.55 1578.88 234.867 1578.88 263.605C1580.93 292.344 1562.46 304.66 1541.93 304.66Z" fill="white"/>
<path d="M1798.54 321.082V238.972C1798.54 206.128 1778.01 175.337 1724.64 175.337C1677.42 175.337 1654.84 204.075 1652.79 228.708C1652.79 230.761 1654.84 230.761 1654.84 230.761L1695.9 238.972C1697.95 238.972 1697.95 238.972 1697.95 236.919C1700 224.603 1710.27 214.339 1726.69 214.339C1743.11 214.339 1751.32 222.55 1751.32 232.814C1751.32 238.972 1747.22 243.078 1739.01 243.078L1700 249.236C1673.31 253.341 1650.73 269.764 1650.73 298.502C1650.73 325.188 1671.26 347.768 1708.21 347.768C1728.74 347.768 1741.06 339.557 1751.32 329.293C1753.38 327.241 1755.43 327.241 1755.43 331.346C1755.43 337.504 1757.48 339.557 1757.48 341.61C1757.48 343.663 1759.53 343.663 1759.53 343.663H1800.59C1802.64 343.663 1802.64 341.61 1802.64 341.61C1798.54 339.557 1798.54 331.346 1798.54 321.082ZM1747.22 282.08C1747.22 308.766 1732.85 314.924 1716.42 314.924C1702.05 314.924 1695.9 306.713 1695.9 298.502C1695.9 286.186 1704.11 282.08 1714.37 280.027L1743.11 275.922C1745.16 275.922 1745.16 277.975 1745.16 277.975L1747.22 282.08Z" fill="white"/>
<path d="M1878.6 105.543H1831.38C1829.33 105.543 1829.33 107.596 1829.33 107.596V345.715C1829.33 347.768 1831.38 347.768 1831.38 347.768H1878.6C1880.65 347.768 1880.65 345.715 1880.65 345.715V107.596C1880.65 105.543 1878.6 105.543 1878.6 105.543Z" fill="white"/>
<path d="M1962.77 105.543H1915.55C1913.5 105.543 1913.5 107.596 1913.5 107.596V345.715C1913.5 347.768 1915.55 347.768 1915.55 347.768H1962.77C1964.82 347.768 1964.82 345.715 1964.82 345.715V107.596C1964.82 105.543 1964.82 105.543 1962.77 105.543Z" fill="white"/>
<path d="M377.959 163.021L254.788 181.495V175.337C254.788 167.126 246.576 160.968 238.365 160.968L133.669 177.39C125.457 179.443 119.299 187.654 123.405 195.865L152.145 259.5C154.197 263.605 154.197 267.711 152.145 269.764L125.457 331.346C121.352 341.61 129.563 351.874 139.827 349.821L254.788 331.346V337.505C254.788 345.715 262.999 351.874 271.21 351.874L382.065 333.399C388.223 331.346 394.382 327.241 394.382 319.03V171.232C394.382 169.179 386.171 163.021 377.959 163.021Z" fill="#FB5819"/>
</svg>
