<?xml version="1.0" encoding="UTF-8"?>
<svg id="Layer_1" xmlns="http://www.w3.org/2000/svg" version="1.1" viewBox="0 0 714 191">
  <!-- Generator: Adobe Illustrator 30.2.1, SVG Export Plug-In . SVG Version: 2.1.1 Build 1)  -->
  <defs>
    <style>
      .st0 {
        fill: #fff;
      }
    </style>
  </defs>
  <path class="st0" d="M280.17,66.98h-16.21c-.31,0-.93.31-.93.93v3.12c0,.93-.94,1.25-1.25.31-2.49-2.8-7.48-5.61-15.27-5.61-16.52,0-27.74,13.71-27.74,29.28,0,16.51,12.15,29.28,27.74,29.28,7.48,0,12.15-2.49,14.96-4.98.31-.31,1.25,0,1.25.31v.93c0,10.9-5.61,15.26-14.96,15.26-6.54,0-11.53-4.05-13.09-9.34,0-.31-.31-.93-.93-.31l-14.96,4.36c-.31,0-.93.31-.31.93,1.87,10.59,13.09,20.87,29.92,20.87,22.44,0,32.1-14.95,32.1-32.09v-52.02c.31-.93,0-1.25-.31-1.25ZM249.94,108.41c-7.48,0-13.09-4.98-13.09-13.4s5.92-13.39,13.09-13.39,13.09,4.98,13.09,13.39-5.61,13.4-13.09,13.4Z"/>
  <path class="st0" d="M344.05,117.44v-29.28c0-12.15-7.17-23.05-26.8-23.05-17.14,0-25.24,10.59-26.18,19.31,0,.31.31.93.93.93l14.65,3.11c.31,0,.93,0,.93-.93.93-4.36,4.36-8.1,10.28-8.1s8.73,3.12,8.73,6.54c0,1.87-1.25,3.43-4.36,4.05l-14.02,2.49c-9.66,1.56-17.76,7.48-17.76,18.07,0,9.35,7.48,18.07,20.88,18.07,7.17,0,12.15-2.8,15.58-6.54.31-.31,1.25-.31,1.25.31,0,1.87.31,3.12.31,4.05,0,.31.31.93.93.93h14.96c.31,0,.94-.31.94-.93-1.25-1.87-1.25-5.61-1.25-9.03ZM325.97,103.42c0,9.35-5.61,11.84-10.91,11.84-4.99,0-7.17-3.12-7.17-6.23,0-4.36,2.8-5.92,6.54-6.54l10.6-1.56c.31,0,.93.31.93.93v1.56Z"/>
  <path class="st0" d="M426.97,64.79c-7.79,0-13.4,2.49-18.08,8.72-.31.31-1.25.31-1.25,0-3.12-5.61-9.04-8.1-17.14-8.1-5.92,0-12.15,2.8-16.2,6.54-.31.31-1.25,0-1.25-.31v-3.43c0-.31-.31-.93-.93-.93h-16.21c-.31,0-.93.31-.93.93v58.56c0,.31.31.93.93.93h16.83c.31,0,.93-.31.93-.93v-33.64c0-5.61,3.43-10.59,9.66-10.59,6.55,0,9.66,4.36,9.66,10.28v34.27c0,.31.31.93.93.93h16.52c.31,0,.93-.31.93-.93v-33.64c0-5.61,3.43-10.28,10.28-10.28s9.35,4.36,9.35,10.28v34.27c0,.31.31.94.93.94h16.21c.31,0,.93-.31.93-.94v-38c-.31-18.07-10.91-24.92-22.13-24.92Z"/>
  <path class="st0" d="M487.74,64.79c-15.58,0-29.92,12.15-29.92,31.77s14.96,32.09,31.48,32.09c14.96,0,24.31-8.1,27.42-18.38,0-.31,0-.93-.31-.93l-13.71-4.05c-.31,0-.93,0-.93.31-1.87,4.36-5.61,7.17-11.84,7.17-6.55,0-12.47-4.36-13.71-10.59,0-.31.31-.93.93-.93h40.51c.31,0,.93-.31.93-.93,0-1.25.31-3.12.31-4.98-.93-19-12.47-30.53-31.17-30.53ZM498.96,89.71h-22.13c-.31,0-.93-.31-.93-.93.93-4.36,4.68-9.35,11.84-9.35,8.1,0,11.53,4.67,12.15,9.35,0,.31,0,.93-.93.93Z"/>
  <path class="st0" d="M562.53,65.42c-7.17,0-13.09,2.49-16.21,5.61-.31.31-1.25,0-1.25-.31v-30.22c0-.31-.31-.93-.93-.93h-16.52c-.31,0-.93.31-.93.93v85.97c0,.31.31.93.93.93h16.21c.31,0,.93-.31.93-.93v-3.43c0-.93.93-1.25,1.25-.31,3.12,3.43,8.73,6.23,15.58,6.23,16.83,0,28.67-13.39,28.67-31.46.31-19-9.97-32.08-27.74-32.08ZM558.79,111.52c-7.17,0-13.71-4.98-13.71-14.95s6.54-14.95,13.71-14.95,13.4,4.67,13.4,14.95c.31,10.28-6.54,14.95-13.4,14.95Z"/>
  <path class="st0" d="M651.04,117.44v-29.28c0-12.15-7.17-23.05-26.8-23.05-17.14,0-25.24,10.59-26.18,19.31,0,.31.31.93.93.93l14.65,3.11c.31,0,.93,0,.93-.93.93-4.36,4.36-8.1,10.28-8.1s8.73,3.12,8.73,6.54c0,1.87-1.25,3.43-4.36,4.05l-14.02,2.49c-9.66,1.56-17.76,7.48-17.76,18.07,0,9.35,7.48,18.07,20.88,18.07,7.17,0,12.15-2.8,15.58-6.54.31-.31,1.25-.31,1.25.31,0,1.87.31,3.12.31,4.05,0,.31.31.93.93.93h14.96c.31,0,.93-.31.93-.93-1.25-1.87-1.25-5.61-1.25-9.03ZM632.97,103.42c0,9.35-5.61,11.84-10.91,11.84-4.99,0-7.17-3.12-7.17-6.23,0-4.36,2.8-5.92,6.54-6.54l10.6-1.56c.31,0,.93.31.93.93v1.56Z"/>
  <path class="st0" d="M680.02,39.56h-16.83c-.31,0-.93.31-.93.93v85.97c0,.31.31.93.93.93h16.83c.31,0,.93-.31.93-.93V40.18c-.31-.31-.62-.62-.93-.62Z"/>
  <path class="st0" d="M710.56,39.56h-16.83c-.31,0-.93.31-.93.93v85.97c0,.31.31.93.93.93h16.83c.31,0,.93-.31.93-.93V40.18c-.31-.31-.62-.62-.93-.62Z"/>
  <path class="st0" d="M94.74,1.56C42.93,1.56.93,43.54.93,95.32s42,93.76,93.81,93.76,93.81-41.98,93.81-93.76S146.54,1.56,94.74,1.56ZM143.66,119c0,2.18-1.56,4.36-4.05,4.67l-40.2,6.23c-2.8.62-5.61-1.56-5.61-4.67v-2.18l-41.45,6.54c-3.74.31-6.86-3.43-5.3-6.85l9.35-22.43c.62-1.25.62-2.49,0-3.74l-10.28-23.05c-1.25-3.11.62-6.23,3.74-6.85l38.02-5.92c2.8-.62,5.61,1.56,5.61,4.67v2.18l44.57-6.85c2.81-.62,5.61,1.87,5.61,4.67v53.58Z"/>
</svg>