<?xml version="1.0" encoding="UTF-8"?>
<svg xmlns="http://www.w3.org/2000/svg" xmlns:xlink="http://www.w3.org/1999/xlink" width="2500px" height="660px" viewBox="0 0 2498 660" version="1.1">
<g id="surface1">
<path style=" stroke:none;fill-rule:nonzero;fill:rgb(100%,84.705883%,0%);fill-opacity:1;" d="M 329.117188 658.914062 C 510.722656 658.914062 657.9375 511.65625 657.9375 330 C 657.9375 148.34375 510.722656 1.085938 329.117188 1.085938 C 147.515625 1.085938 0.296875 148.34375 0.296875 330 C 0.296875 511.65625 147.515625 658.914062 329.117188 658.914062 Z M 329.117188 658.914062 "/>
<path style=" stroke:none;fill-rule:nonzero;fill:rgb(0%,0%,0%);fill-opacity:1;" d="M 981.539062 230.804688 L 924.125 230.804688 C 921.515625 230.804688 921.515625 233.414062 921.515625 233.414062 L 921.515625 243.855469 C 921.515625 246.464844 918.90625 249.074219 916.296875 246.464844 C 908.46875 236.023438 890.199219 228.191406 861.496094 228.191406 C 804.082031 228.191406 762.324219 277.792969 762.324219 332.609375 C 762.324219 390.039062 804.082031 437.027344 861.496094 437.027344 C 887.589844 437.027344 903.25 429.195312 913.6875 418.753906 C 916.296875 416.144531 918.90625 418.753906 918.90625 421.363281 L 918.90625 423.976562 C 918.90625 463.132812 900.640625 478.796875 866.714844 478.796875 C 843.226562 478.796875 827.570312 465.742188 822.347656 444.859375 C 822.347656 442.25 819.738281 442.25 819.738281 442.25 L 767.546875 457.910156 C 764.9375 457.910156 764.9375 460.519531 764.9375 460.519531 C 772.765625 497.066406 809.300781 533.613281 869.324219 533.613281 C 947.613281 533.613281 981.539062 481.40625 981.539062 421.363281 L 981.539062 238.632812 C 984.148438 230.804688 981.539062 230.804688 981.539062 230.804688 Z M 874.542969 376.988281 C 848.445312 376.988281 830.175781 358.714844 830.175781 330 C 830.175781 301.285156 851.054688 283.011719 874.542969 283.011719 C 898.03125 283.011719 918.90625 301.285156 918.90625 330 C 918.90625 358.714844 900.640625 376.988281 874.542969 376.988281 Z M 874.542969 376.988281 "/>
<path style=" stroke:none;fill-rule:nonzero;fill:rgb(0%,0%,0%);fill-opacity:1;" d="M 1205.972656 408.3125 L 1205.972656 303.894531 C 1205.972656 262.128906 1179.878906 222.972656 1112.027344 222.972656 C 1052.003906 222.972656 1023.296875 259.515625 1020.683594 290.84375 C 1020.683594 293.453125 1023.296875 293.453125 1023.296875 293.453125 L 1075.488281 303.894531 C 1078.097656 303.894531 1078.097656 303.894531 1078.097656 301.285156 C 1080.707031 285.621094 1093.757812 272.570312 1114.632812 272.570312 C 1135.511719 272.570312 1145.953125 283.011719 1145.953125 296.0625 C 1145.953125 303.894531 1140.730469 309.117188 1130.292969 309.117188 L 1080.707031 316.949219 C 1046.78125 322.167969 1018.078125 343.050781 1018.078125 379.597656 C 1018.078125 413.535156 1044.171875 442.25 1091.148438 442.25 C 1117.246094 442.25 1132.902344 431.804688 1145.953125 418.753906 C 1148.5625 416.144531 1151.171875 416.144531 1151.171875 421.363281 C 1151.171875 429.195312 1153.78125 431.804688 1153.78125 434.417969 C 1148.5625 439.636719 1151.171875 439.636719 1151.171875 439.636719 L 1203.363281 439.636719 C 1205.972656 439.636719 1205.972656 437.027344 1205.972656 437.027344 C 1205.972656 431.804688 1205.972656 421.363281 1205.972656 408.3125 Z M 1143.339844 358.714844 C 1143.339844 392.652344 1125.074219 400.480469 1104.195312 400.480469 C 1085.929688 400.480469 1078.097656 390.039062 1078.097656 379.597656 C 1078.097656 363.9375 1088.539062 358.714844 1101.585938 356.105469 L 1138.121094 350.882812 C 1140.730469 350.882812 1140.730469 353.496094 1140.730469 353.496094 Z M 1143.339844 358.714844 "/>
<path style=" stroke:none;fill-rule:nonzero;fill:rgb(0%,0%,0%);fill-opacity:1;" d="M 1498.253906 222.972656 C 1469.546875 222.972656 1451.28125 230.804688 1435.632812 254.296875 C 1433.011719 256.90625 1430.40625 256.90625 1430.40625 254.296875 C 1419.96875 236.023438 1399.097656 225.582031 1370.378906 225.582031 C 1349.503906 225.582031 1328.632812 236.023438 1312.96875 249.074219 C 1310.363281 251.6875 1307.757812 249.074219 1307.757812 246.464844 L 1307.757812 233.414062 C 1307.757812 230.804688 1305.136719 230.804688 1305.136719 230.804688 L 1247.730469 230.804688 C 1245.117188 230.804688 1245.117188 233.414062 1245.117188 233.414062 L 1245.117188 439.636719 C 1245.117188 442.25 1247.730469 442.25 1247.730469 442.25 L 1307.757812 442.25 C 1310.363281 442.25 1310.363281 439.636719 1310.363281 439.636719 L 1310.363281 319.558594 C 1310.363281 301.285156 1323.40625 283.011719 1344.292969 283.011719 C 1367.773438 283.011719 1378.210938 298.675781 1378.210938 319.558594 L 1378.210938 439.636719 C 1378.210938 442.25 1380.828125 442.25 1380.828125 442.25 L 1438.238281 442.25 C 1440.84375 442.25 1440.84375 439.636719 1440.84375 439.636719 L 1440.84375 319.558594 C 1440.84375 301.285156 1453.898438 283.011719 1477.378906 283.011719 C 1500.871094 283.011719 1511.308594 298.675781 1511.308594 319.558594 L 1511.308594 439.636719 C 1511.308594 442.25 1513.914062 442.25 1513.914062 442.25 L 1571.324219 442.25 C 1573.945312 442.25 1573.945312 439.636719 1573.945312 439.636719 L 1573.945312 306.503906 C 1573.945312 246.464844 1537.40625 222.972656 1498.253906 222.972656 Z M 1498.253906 222.972656 "/>
<path style=" stroke:none;fill-rule:nonzero;fill:rgb(0%,0%,0%);fill-opacity:1;" d="M 1712.253906 222.972656 C 1657.453125 222.972656 1607.859375 264.738281 1607.859375 335.21875 C 1607.859375 405.703125 1660.058594 447.46875 1717.46875 447.46875 C 1769.664062 447.46875 1803.59375 418.753906 1814.03125 382.207031 C 1814.03125 379.597656 1814.03125 379.597656 1811.425781 379.597656 L 1761.832031 366.546875 C 1759.226562 366.546875 1759.226562 366.546875 1759.226562 369.15625 C 1751.398438 384.820312 1740.960938 395.261719 1717.46875 395.261719 C 1693.988281 395.261719 1673.113281 379.597656 1667.886719 358.714844 C 1667.886719 356.105469 1670.496094 356.105469 1670.496094 356.105469 L 1814.03125 356.105469 C 1816.636719 356.105469 1816.636719 353.496094 1816.636719 353.496094 C 1816.636719 348.273438 1819.257812 343.050781 1819.257812 335.21875 C 1816.636719 262.128906 1777.496094 222.972656 1712.253906 222.972656 Z M 1751.398438 309.117188 L 1673.113281 309.117188 C 1670.496094 309.117188 1670.496094 306.503906 1670.496094 306.503906 C 1673.113281 290.84375 1686.15625 272.570312 1712.253906 272.570312 C 1740.960938 272.570312 1751.398438 288.234375 1754.003906 306.503906 C 1754.003906 309.117188 1754.003906 309.117188 1751.398438 309.117188 Z M 1751.398438 309.117188 "/>
<path style=" stroke:none;fill-rule:nonzero;fill:rgb(0%,0%,0%);fill-opacity:1;" d="M 1975.835938 222.972656 C 1949.738281 222.972656 1931.46875 230.804688 1918.414062 241.246094 C 1915.808594 243.855469 1913.199219 241.246094 1913.199219 238.636719 L 1913.199219 131.605469 C 1913.199219 128.996094 1910.59375 128.996094 1910.59375 128.996094 L 1853.171875 128.996094 C 1850.566406 128.996094 1850.566406 131.605469 1850.566406 131.605469 L 1850.566406 439.636719 C 1850.566406 442.25 1853.171875 442.25 1853.171875 442.25 L 1910.59375 442.25 C 1913.199219 442.25 1913.199219 439.636719 1913.199219 439.636719 L 1913.199219 426.585938 C 1913.199219 423.976562 1915.808594 421.363281 1918.414062 423.976562 C 1928.863281 437.027344 1949.738281 444.859375 1973.214844 444.859375 C 2033.246094 444.859375 2075.003906 397.871094 2075.003906 335.21875 C 2072.386719 269.960938 2038.46875 222.972656 1975.835938 222.972656 Z M 1960.171875 387.429688 C 1934.074219 387.429688 1910.59375 369.15625 1910.59375 335.21875 C 1910.59375 298.675781 1934.074219 283.011719 1960.171875 283.011719 C 1986.273438 283.011719 2007.144531 298.675781 2007.144531 335.21875 C 2009.753906 371.765625 1986.273438 387.429688 1960.171875 387.429688 Z M 1960.171875 387.429688 "/>
<path style=" stroke:none;fill-rule:nonzero;fill:rgb(0%,0%,0%);fill-opacity:1;" d="M 2286.386719 408.3125 L 2286.386719 303.894531 C 2286.386719 262.128906 2260.289062 222.972656 2192.441406 222.972656 C 2132.414062 222.972656 2103.710938 259.515625 2101.105469 290.84375 C 2101.105469 293.453125 2103.710938 293.453125 2103.710938 293.453125 L 2155.90625 303.894531 C 2158.511719 303.894531 2158.511719 303.894531 2158.511719 301.285156 C 2161.121094 285.621094 2174.175781 272.570312 2195.050781 272.570312 C 2215.921875 272.570312 2226.359375 283.011719 2226.359375 296.0625 C 2226.359375 303.894531 2221.148438 309.117188 2210.710938 309.117188 L 2161.121094 316.949219 C 2127.191406 322.167969 2098.484375 343.050781 2098.484375 379.597656 C 2098.484375 413.535156 2124.582031 442.25 2171.554688 442.25 C 2197.65625 442.25 2213.316406 431.804688 2226.359375 418.753906 C 2228.980469 416.144531 2231.585938 416.144531 2231.585938 421.363281 C 2231.585938 429.195312 2234.191406 431.804688 2234.191406 434.417969 C 2234.191406 437.027344 2236.796875 437.027344 2236.796875 437.027344 L 2288.996094 437.027344 C 2291.601562 437.027344 2291.601562 434.417969 2291.601562 434.417969 C 2286.386719 431.804688 2286.386719 421.363281 2286.386719 408.3125 Z M 2221.148438 358.714844 C 2221.148438 392.652344 2202.878906 400.480469 2181.992188 400.480469 C 2163.726562 400.480469 2155.90625 390.039062 2155.90625 379.597656 C 2155.90625 363.9375 2166.34375 358.714844 2179.386719 356.105469 L 2215.921875 350.882812 C 2218.527344 350.882812 2218.527344 353.496094 2218.527344 353.496094 Z M 2221.148438 358.714844 "/>
<path style=" stroke:none;fill-rule:nonzero;fill:rgb(0%,0%,0%);fill-opacity:1;" d="M 2388.164062 134.214844 L 2328.136719 134.214844 C 2325.53125 134.214844 2325.53125 136.828125 2325.53125 136.828125 L 2325.53125 439.636719 C 2325.53125 442.25 2328.136719 442.25 2328.136719 442.25 L 2388.164062 442.25 C 2390.769531 442.25 2390.769531 439.636719 2390.769531 439.636719 L 2390.769531 136.828125 C 2390.769531 134.214844 2388.164062 134.214844 2388.164062 134.214844 Z M 2388.164062 134.214844 "/>
<path style=" stroke:none;fill-rule:nonzero;fill:rgb(0%,0%,0%);fill-opacity:1;" d="M 2495.164062 134.214844 L 2435.136719 134.214844 C 2432.53125 134.214844 2432.53125 136.828125 2432.53125 136.828125 L 2432.53125 439.636719 C 2432.53125 442.25 2435.136719 442.25 2435.136719 442.25 L 2495.164062 442.25 C 2497.769531 442.25 2497.769531 439.636719 2497.769531 439.636719 L 2497.769531 136.828125 C 2497.769531 134.214844 2497.769531 134.214844 2495.164062 134.214844 Z M 2495.164062 134.214844 "/>
<path style=" stroke:none;fill-rule:nonzero;fill:rgb(98.431373%,34.509805%,9.803922%);fill-opacity:1;" d="M 480.480469 207.308594 L 323.898438 230.804688 L 323.898438 222.972656 C 323.898438 212.53125 313.457031 204.699219 303.019531 204.699219 L 169.925781 225.582031 C 159.488281 228.195312 151.660156 238.636719 156.878906 249.078125 L 193.414062 330 C 196.023438 335.21875 196.023438 340.441406 193.414062 343.050781 L 159.488281 421.363281 C 154.269531 434.417969 164.707031 447.46875 177.753906 444.859375 L 323.898438 421.363281 L 323.898438 429.195312 C 323.898438 439.636719 334.335938 447.46875 344.773438 447.46875 L 485.699219 423.976562 C 493.527344 421.363281 501.355469 416.144531 501.355469 405.703125 L 501.355469 217.75 C 501.355469 215.140625 490.917969 207.308594 480.480469 207.308594 Z M 480.480469 207.308594 "/>
</g>
</svg>
