<svg width="5000" height="1400" viewBox="0 0 111 31" fill="none" xmlns="http://www.w3.org/2000/svg">
<g clip-path="url(#clip0_1_256)">
<path d="M14.6489 30.1489C22.7392 30.1489 29.2977 23.5903 29.2977 15.5C29.2977 7.40965 22.7392 0.851135 14.6489 0.851135C6.55852 0.851135 0 7.40965 0 15.5C0 23.5903 6.55852 30.1489 14.6489 30.1489Z" fill="#FFD900"/>
<path d="M21.4174 10.0938L14.4745 11.1838V10.8459C14.4745 10.3772 14.0603 10.0175 13.5916 10.0938L7.6296 11.0312C7.13913 11.1075 6.84484 11.6307 7.05193 12.0884L8.64325 15.6743C8.73045 15.8705 8.73045 16.0885 8.65415 16.2738L7.18273 19.7943C6.95384 20.3502 7.41162 20.9388 8.00019 20.8407L14.4745 19.827V20.1649C14.4745 20.6336 14.8886 20.9933 15.3573 20.917L21.6572 19.9251C22.0278 19.8706 22.3003 19.5437 22.3003 19.1731V10.8459C22.3003 10.3772 21.8861 10.0175 21.4174 10.0938Z" fill="#FC5819"/>
<path d="M43.2532 6.37633H40.7354C40.67 6.37633 40.6155 6.44173 40.6155 6.49622V6.9867C40.6155 7.10659 40.4956 7.17199 40.4302 7.0521C40.0596 6.62702 39.264 6.19104 38.0432 6.19104C35.471 6.19104 33.6943 8.33823 33.6943 10.7906C33.6943 13.3629 35.5908 15.3902 38.0432 15.3902C39.2095 15.3902 39.9397 15.0196 40.3757 14.5945C40.4411 14.5291 40.561 14.5945 40.561 14.6599V14.7798C40.561 16.5019 39.6999 17.1668 38.2285 17.1668C37.1822 17.1668 36.4519 16.5564 36.2012 15.6954C36.2012 15.63 36.1358 15.5755 36.0813 15.63L33.7488 16.3057C33.6834 16.3057 33.6289 16.3711 33.6834 16.4256C33.9886 18.0823 35.7107 19.6737 38.3484 19.6737C41.8471 19.6737 43.373 17.3412 43.373 14.649V6.49622C43.373 6.44173 43.3186 6.37633 43.2532 6.37633ZM38.5337 12.8833C37.3675 12.8833 36.5064 12.0876 36.5064 10.8015C36.5064 9.51537 37.422 8.71971 38.5337 8.71971C39.6454 8.71971 40.561 9.51537 40.561 10.8015C40.561 12.0876 39.6999 12.8833 38.5337 12.8833Z" fill="black"/>
<path d="M53.248 14.2892V9.6896C53.248 7.79309 52.1471 6.07098 49.0735 6.07098C46.3704 6.07098 45.1497 7.7277 44.9644 9.07923C44.9644 9.14463 45.0298 9.19912 45.0843 9.19912L47.3514 9.6896C47.4167 9.6896 47.4713 9.6896 47.4713 9.56971C47.5911 8.89394 48.147 8.28357 49.0626 8.28357C49.9781 8.28357 50.4141 8.77405 50.4141 9.32992C50.4141 9.6351 50.2288 9.88579 49.7383 9.94029L47.5257 10.3109C45.9889 10.5616 44.7682 11.4771 44.7682 13.1338C44.7682 14.6053 45.9344 15.9568 48.0162 15.9568C49.1171 15.9568 49.9127 15.5317 50.4686 14.9104C50.534 14.845 50.6539 14.845 50.6539 14.9758C50.6539 15.281 50.7193 15.4663 50.7193 15.5862C50.7193 15.6516 50.7847 15.7061 50.8392 15.7061H53.1717C53.2371 15.7061 53.2916 15.6407 53.2916 15.5862C53.248 15.39 53.248 14.845 53.248 14.2892ZM50.425 12.0875C50.425 13.5589 49.5639 13.9295 48.7029 13.9295C47.9072 13.9295 47.602 13.439 47.602 12.9485C47.602 12.2728 48.0271 12.033 48.6484 11.9022L50.3051 11.6515C50.3705 11.6515 50.425 11.7169 50.425 11.7714V12.0875Z" fill="black"/>
<path d="M66.1855 6.07098C64.9539 6.07098 64.1037 6.44156 63.3626 7.42251C63.2972 7.48791 63.1773 7.48791 63.1773 7.42251C62.6868 6.56146 61.7713 6.13638 60.4742 6.13638C59.5587 6.13638 58.5777 6.56146 57.9565 7.18273C57.8911 7.24812 57.7712 7.18273 57.7712 7.11733V6.56146C57.7712 6.49606 57.7058 6.44156 57.6513 6.44156H55.1335C55.0681 6.44156 55.0136 6.50696 55.0136 6.56146V15.7061C55.0136 15.7715 55.079 15.826 55.1335 15.826H57.7712C57.8366 15.826 57.8911 15.7606 57.8911 15.7061V10.4308C57.8911 9.56971 58.4469 8.77405 59.4279 8.77405C60.4742 8.77405 60.9647 9.44981 60.9647 10.3654V15.7061C60.9647 15.7715 61.0301 15.826 61.0846 15.826H63.6569C63.7223 15.826 63.7768 15.7606 63.7768 15.7061V10.4308C63.7768 9.56971 64.3326 8.83944 65.3681 8.83944C66.4144 8.83944 66.8395 9.51521 66.8395 10.4308V15.7606C66.8395 15.826 66.9049 15.8805 66.9594 15.8805H69.4772C69.5426 15.8805 69.5971 15.8151 69.5971 15.7606V9.80949C69.6189 7.11733 67.9622 6.07098 66.1855 6.07098Z" fill="black"/>
<path d="M75.6899 6.07098C73.2376 6.07098 71.025 7.96749 71.025 11.0411C71.025 14.1693 73.3574 16.0658 75.9297 16.0658C78.2622 16.0658 79.7336 14.7796 80.2241 13.1883C80.2241 13.1229 80.2241 13.0684 80.1587 13.0684L78.0115 12.4581C77.9461 12.4581 77.8916 12.4581 77.8916 12.5235C77.5864 13.1992 77.0306 13.6243 76.0496 13.6243C75.0033 13.6243 74.0877 12.9485 73.9024 11.9676C73.9024 11.9022 73.9678 11.8477 74.0223 11.8477H80.3331C80.3985 11.8477 80.453 11.7823 80.453 11.7278C80.453 11.5425 80.5184 11.2373 80.5184 10.9321C80.4094 7.84759 78.6328 6.07098 75.6899 6.07098ZM77.4665 9.94029H73.9678C73.9024 9.94029 73.8479 9.87489 73.8479 9.82039C73.9678 9.14463 74.5891 8.34897 75.6899 8.34897C76.9761 8.34897 77.4665 9.09013 77.5864 9.82039C77.5864 9.87489 77.5864 9.94029 77.4665 9.94029Z" fill="black"/>
<path d="M87.3959 6.13641C86.2951 6.13641 85.3686 6.50699 84.8781 6.99746C84.8128 7.06286 84.6928 6.99746 84.6928 6.93207V2.21261C84.6928 2.14721 84.6275 2.09271 84.573 2.09271H82.0007C81.9353 2.09271 81.8808 2.15811 81.8808 2.21261V15.6407C81.8808 15.7061 81.9462 15.7606 82.0007 15.7606H84.5185C84.5839 15.7606 84.6384 15.6952 84.6384 15.6407V15.0849C84.6384 14.965 84.7583 14.8996 84.8236 15.0195C85.3141 15.5753 86.1752 16.0004 87.276 16.0004C89.9137 16.0004 91.7557 13.9186 91.7557 11.0957C91.7557 8.2182 90.1535 6.13641 87.3959 6.13641ZM86.7856 13.3736C85.6847 13.3736 84.6384 12.578 84.6384 11.0412C84.6384 9.44984 85.6847 8.70868 86.7856 8.70868C87.8864 8.70868 88.8673 9.44984 88.8673 11.0412C88.9327 12.6325 87.8864 13.3736 86.7856 13.3736Z" fill="black"/>
<path d="M101.195 14.2892V9.6896C101.195 7.79309 100.094 6.07098 97.0201 6.07098C94.3171 6.07098 93.0963 7.7277 92.911 9.07923C92.911 9.14463 92.9764 9.19912 93.0309 9.19912L95.298 9.6896C95.3634 9.6896 95.4179 9.6896 95.4179 9.56971C95.5378 8.89394 96.0937 8.28357 97.0092 8.28357C97.9248 8.28357 98.3608 8.77405 98.3608 9.32992C98.3608 9.6351 98.1755 9.88579 97.685 9.94029L95.4724 10.3109C93.9356 10.5616 92.7148 11.4771 92.7148 13.1338C92.7148 14.6053 93.8811 15.9568 95.9629 15.9568C97.0637 15.9568 97.8594 15.5317 98.4152 14.9104C98.4806 14.845 98.6005 14.845 98.6005 14.9758C98.6005 15.281 98.6659 15.4663 98.6659 15.5862C98.6659 15.6516 98.7313 15.7061 98.7858 15.7061H101.118C101.184 15.7061 101.238 15.6407 101.238 15.5862C101.195 15.39 101.195 14.845 101.195 14.2892ZM98.3716 12.0875C98.3716 13.5589 97.5106 13.9295 96.6495 13.9295C95.8539 13.9295 95.5487 13.439 95.5487 12.9485C95.5487 12.2728 95.9738 12.033 96.595 11.9022L98.2518 11.6515C98.3172 11.6515 98.3716 11.7169 98.3716 11.7714V12.0875Z" fill="black"/>
<path d="M105.729 2.09271H103.091C103.026 2.09271 102.971 2.15811 102.971 2.21261V15.6407C102.971 15.7061 103.037 15.7606 103.091 15.7606H105.729C105.794 15.7606 105.849 15.6952 105.849 15.6407V2.21261C105.86 2.14721 105.794 2.09271 105.729 2.09271Z" fill="black"/>
<path d="M110.514 2.09271H107.876C107.811 2.09271 107.756 2.15811 107.756 2.21261V15.6407C107.756 15.7061 107.821 15.7606 107.876 15.7606H110.514C110.579 15.7606 110.633 15.6952 110.633 15.6407V2.21261C110.633 2.14721 110.579 2.09271 110.514 2.09271Z" fill="black"/>
<path d="M36.6887 29.168H34.3437V22.2478H36.736C37.4231 22.2478 38.0133 22.3863 38.5066 22.6634C39.0022 22.9382 39.3829 23.3336 39.6487 23.8494C39.9146 24.3653 40.0475 24.9825 40.0475 25.7011C40.0475 26.422 39.9134 27.0415 39.6454 27.5596C39.3796 28.0777 38.9955 28.4753 38.4931 28.7524C37.993 29.0295 37.3916 29.168 36.6887 29.168ZM35.5973 28.0833H36.6279C37.11 28.0833 37.5121 27.9955 37.8342 27.8198C38.1563 27.6418 38.3985 27.3771 38.5607 27.0257C38.7229 26.672 38.804 26.2305 38.804 25.7011C38.804 25.1718 38.7229 24.7325 38.5607 24.3833C38.3985 24.0319 38.1586 23.7695 37.841 23.596C37.5256 23.4203 37.1336 23.3324 36.6651 23.3324H35.5973V28.0833ZM43.1968 29.2694C42.6764 29.2694 42.227 29.1612 41.8486 28.945C41.4724 28.7265 41.1829 28.4179 40.9801 28.0191C40.7774 27.6182 40.676 27.1462 40.676 26.6033C40.676 26.0694 40.7774 25.6009 40.9801 25.1977C41.1851 24.7922 41.4712 24.4768 41.8384 24.2515C42.2056 24.024 42.637 23.9103 43.1326 23.9103C43.4525 23.9103 43.7543 23.9621 44.0382 24.0657C44.3242 24.1671 44.5765 24.3247 44.795 24.5388C45.0158 24.7528 45.1893 25.0253 45.3154 25.3565C45.4416 25.6854 45.5046 26.0773 45.5046 26.5324V26.9074H41.2505V26.083H44.3321C44.3299 25.8487 44.2792 25.6403 44.1801 25.4578C44.081 25.2731 43.9424 25.1278 43.7645 25.0219C43.5887 24.9161 43.3837 24.8631 43.1495 24.8631C42.8994 24.8631 42.6798 24.924 42.4906 25.0456C42.3013 25.165 42.1538 25.3227 42.0479 25.5187C41.9443 25.7124 41.8914 25.9253 41.8891 26.1573V26.877C41.8891 27.1789 41.9443 27.4379 42.0547 27.6542C42.1651 27.8682 42.3194 28.0327 42.5176 28.1475C42.7158 28.2602 42.9479 28.3165 43.2137 28.3165C43.3916 28.3165 43.5527 28.2917 43.6969 28.2421C43.841 28.1903 43.9661 28.1149 44.0719 28.0158C44.1778 27.9166 44.2578 27.7939 44.3119 27.6474L45.454 27.7758C45.3819 28.0777 45.2445 28.3413 45.0417 28.5665C44.8412 28.7895 44.5844 28.963 44.2713 29.0869C43.9582 29.2085 43.6 29.2694 43.1968 29.2694ZM50.7413 23.9778L48.893 29.168H47.5414L45.6931 23.9778H46.9974L48.1902 27.8333H48.2442L49.4404 23.9778H50.7413ZM53.4235 29.2694C52.9031 29.2694 52.4537 29.1612 52.0753 28.945C51.6991 28.7265 51.4096 28.4179 51.2069 28.0191C51.0041 27.6182 50.9028 27.1462 50.9028 26.6033C50.9028 26.0694 51.0041 25.6009 51.2069 25.1977C51.4119 24.7922 51.6979 24.4768 52.0651 24.2515C52.4323 24.024 52.8637 23.9103 53.3593 23.9103C53.6792 23.9103 53.981 23.9621 54.2649 24.0657C54.551 24.1671 54.8033 24.3247 55.0218 24.5388C55.2425 24.7528 55.416 25.0253 55.5421 25.3565C55.6683 25.6854 55.7314 26.0773 55.7314 26.5324V26.9074H51.4772V26.083H54.5588C54.5566 25.8487 54.5059 25.6403 54.4068 25.4578C54.3077 25.2731 54.1691 25.1278 53.9912 25.0219C53.8155 24.9161 53.6105 24.8631 53.3762 24.8631C53.1261 24.8631 52.9065 24.924 52.7173 25.0456C52.5281 25.165 52.3805 25.3227 52.2746 25.5187C52.171 25.7124 52.1181 25.9253 52.1158 26.1573V26.877C52.1158 27.1789 52.171 27.4379 52.2814 27.6542C52.3918 27.8682 52.5461 28.0327 52.7443 28.1475C52.9425 28.2602 53.1746 28.3165 53.4404 28.3165C53.6184 28.3165 53.7794 28.2917 53.9236 28.2421C54.0678 28.1903 54.1928 28.1149 54.2987 28.0158C54.4045 27.9166 54.4845 27.7939 54.5386 27.6474L55.6807 27.7758C55.6086 28.0777 55.4712 28.3413 55.2684 28.5665C55.0679 28.7895 54.8111 28.963 54.498 29.0869C54.1849 29.2085 53.8267 29.2694 53.4235 29.2694ZM57.7039 22.2478V29.168H56.4807V22.2478H57.7039ZM60.9402 29.2694C60.4334 29.2694 59.9941 29.1579 59.6224 28.9348C59.2507 28.7118 58.9624 28.3998 58.7574 27.9989C58.5547 27.5979 58.4533 27.1293 58.4533 26.5932C58.4533 26.0571 58.5547 25.5874 58.7574 25.1841C58.9624 24.7809 59.2507 24.4678 59.6224 24.2448C59.9941 24.0218 60.4334 23.9103 60.9402 23.9103C61.4471 23.9103 61.8864 24.0218 62.2581 24.2448C62.6298 24.4678 62.917 24.7809 63.1197 25.1841C63.3247 25.5874 63.4272 26.0571 63.4272 26.5932C63.4272 27.1293 63.3247 27.5979 63.1197 27.9989C62.917 28.3998 62.6298 28.7118 62.2581 28.9348C61.8864 29.1579 61.4471 29.2694 60.9402 29.2694ZM60.947 28.2895C61.2218 28.2895 61.4516 28.214 61.6363 28.0631C61.821 27.9099 61.9585 27.7049 62.0486 27.4481C62.1409 27.1913 62.1871 26.9052 62.1871 26.5898C62.1871 26.2722 62.1409 25.985 62.0486 25.7282C61.9585 25.4691 61.821 25.263 61.6363 25.1098C61.4516 24.9566 61.2218 24.88 60.947 24.88C60.6654 24.88 60.4311 24.9566 60.2442 25.1098C60.0594 25.263 59.9209 25.4691 59.8285 25.7282C59.7384 25.985 59.6934 26.2722 59.6934 26.5898C59.6934 26.9052 59.7384 27.1913 59.8285 27.4481C59.9209 27.7049 60.0594 27.9099 60.2442 28.0631C60.4311 28.214 60.6654 28.2895 60.947 28.2895ZM64.1799 31.1143V23.9778H65.3829V24.8361H65.4538C65.5169 24.71 65.6059 24.5759 65.7208 24.434C65.8357 24.2898 65.9911 24.1671 66.1871 24.0657C66.3831 23.9621 66.6331 23.9103 66.9372 23.9103C67.3382 23.9103 67.6997 24.0128 68.0219 24.2177C68.3463 24.4205 68.6031 24.7212 68.7923 25.1199C68.9838 25.5164 69.0795 26.003 69.0795 26.5797C69.0795 27.1496 68.986 27.6339 68.7991 28.0327C68.6121 28.4314 68.3575 28.7355 68.0354 28.945C67.7133 29.1545 67.3483 29.2592 66.9406 29.2592C66.6432 29.2592 66.3966 29.2097 66.2006 29.1106C66.0046 29.0114 65.8469 28.892 65.7275 28.7524C65.6104 28.6105 65.5192 28.4764 65.4538 28.3503H65.4031V31.1143H64.1799ZM65.3795 26.5729C65.3795 26.9086 65.4268 27.2025 65.5214 27.4548C65.6183 27.7071 65.7568 27.9042 65.937 28.0462C66.1195 28.1858 66.3403 28.2557 66.5993 28.2557C66.8696 28.2557 67.096 28.1836 67.2785 28.0394C67.461 27.893 67.5984 27.6936 67.6907 27.4413C67.7854 27.1868 67.8327 26.8973 67.8327 26.5729C67.8327 26.2508 67.7865 25.9647 67.6941 25.7146C67.6018 25.4646 67.4643 25.2686 67.2819 25.1267C67.0994 24.9848 66.8719 24.9138 66.5993 24.9138C66.338 24.9138 66.1161 24.9825 65.9337 25.1199C65.7512 25.2574 65.6126 25.45 65.518 25.6978C65.4257 25.9455 65.3795 26.2373 65.3795 26.5729ZM72.1393 29.2694C71.6189 29.2694 71.1695 29.1612 70.7911 28.945C70.4149 28.7265 70.1254 28.4179 69.9226 28.0191C69.7199 27.6182 69.6185 27.1462 69.6185 26.6033C69.6185 26.0694 69.7199 25.6009 69.9226 25.1977C70.1276 24.7922 70.4137 24.4768 70.7809 24.2515C71.1481 24.024 71.5795 23.9103 72.0751 23.9103C72.395 23.9103 72.6968 23.9621 72.9807 24.0657C73.2667 24.1671 73.519 24.3247 73.7376 24.5388C73.9583 24.7528 74.1318 25.0253 74.2579 25.3565C74.3841 25.6854 74.4471 26.0773 74.4471 26.5324V26.9074H70.193V26.083H73.2746C73.2724 25.8487 73.2217 25.6403 73.1226 25.4578C73.0235 25.2731 72.8849 25.1278 72.707 25.0219C72.5312 24.9161 72.3262 24.8631 72.092 24.8631C71.8419 24.8631 71.6223 24.924 71.4331 25.0456C71.2438 25.165 71.0963 25.3227 70.9904 25.5187C70.8868 25.7124 70.8339 25.9253 70.8316 26.1573V26.877C70.8316 27.1789 70.8868 27.4379 70.9972 27.6542C71.1076 27.8682 71.2619 28.0327 71.4601 28.1475C71.6583 28.2602 71.8904 28.3165 72.1562 28.3165C72.3341 28.3165 72.4952 28.2917 72.6394 28.2421C72.7835 28.1903 72.9086 28.1149 73.0144 28.0158C73.1203 27.9166 73.2003 27.7939 73.2544 27.6474L74.3965 27.7758C74.3244 28.0777 74.187 28.3413 73.9842 28.5665C73.7837 28.7895 73.5269 28.963 73.2138 29.0869C72.9007 29.2085 72.5425 29.2694 72.1393 29.2694ZM75.1965 29.168V23.9778H76.3825V24.8429H76.4366C76.5312 24.5433 76.6934 24.3124 76.9232 24.1502C77.1552 23.9857 77.4199 23.9035 77.7172 23.9035C77.7848 23.9035 77.8603 23.9069 77.9436 23.9136C78.0292 23.9181 78.1002 23.926 78.1565 23.9373V25.0625C78.1047 25.0445 78.0225 25.0287 77.9099 25.0152C77.7995 24.9994 77.6925 24.9915 77.5888 24.9915C77.3658 24.9915 77.1653 25.04 76.9874 25.1368C76.8117 25.2314 76.6731 25.3632 76.5718 25.5322C76.4704 25.7011 76.4197 25.896 76.4197 26.1168V29.168H75.1965ZM82.7858 25.3497L81.6708 25.4714C81.6392 25.3587 81.584 25.2528 81.5052 25.1537C81.4286 25.0546 81.325 24.9746 81.1943 24.9138C81.0637 24.853 80.9037 24.8226 80.7145 24.8226C80.4599 24.8226 80.2459 24.8778 80.0725 24.9882C79.9013 25.0985 79.8168 25.2416 79.8191 25.4173C79.8168 25.5682 79.872 25.691 79.9846 25.7856C80.0995 25.8802 80.2887 25.9579 80.5523 26.0188L81.4376 26.208C81.9287 26.3139 82.2936 26.4817 82.5324 26.7115C82.7734 26.9412 82.8951 27.242 82.8973 27.6137C82.8951 27.9403 82.7994 28.2286 82.6101 28.4787C82.4232 28.7265 82.163 28.9202 81.8296 29.0599C81.4962 29.1995 81.1132 29.2694 80.6807 29.2694C80.0455 29.2694 79.5341 29.1365 79.1466 28.8706C78.7592 28.6026 78.5283 28.2298 78.4539 27.7522L79.6467 27.6373C79.7008 27.8716 79.8157 28.0484 79.9914 28.1678C80.1671 28.2872 80.3957 28.3469 80.6773 28.3469C80.9679 28.3469 81.2011 28.2872 81.3768 28.1678C81.5547 28.0484 81.6437 27.9009 81.6437 27.7252C81.6437 27.5765 81.5863 27.4537 81.4714 27.3568C81.3588 27.26 81.1831 27.1856 80.9443 27.1338L80.059 26.948C79.5611 26.8444 79.1928 26.6698 78.954 26.4242C78.7153 26.1764 78.597 25.8633 78.5992 25.4849C78.597 25.165 78.6837 24.8879 78.8594 24.6536C79.0374 24.4171 79.2841 24.2346 79.5994 24.1062C79.9171 23.9756 80.2831 23.9103 80.6976 23.9103C81.3058 23.9103 81.7845 24.0398 82.1337 24.2988C82.4851 24.5579 82.7025 24.9082 82.7858 25.3497ZM90.3854 24.4577C90.3291 24.2752 90.2513 24.1119 90.1522 23.9677C90.0554 23.8213 89.9382 23.6963 89.8008 23.5926C89.6656 23.489 89.5102 23.4113 89.3345 23.3595C89.1588 23.3054 88.9673 23.2784 88.7601 23.2784C88.3884 23.2784 88.0572 23.3719 87.7666 23.5588C87.476 23.7458 87.2474 24.0206 87.0807 24.3833C86.9163 24.7437 86.834 25.183 86.834 25.7011C86.834 26.2238 86.9163 26.6664 87.0807 27.0291C87.2451 27.3918 87.4738 27.6677 87.7666 27.8569C88.0595 28.0439 88.3996 28.1374 88.7871 28.1374C89.1385 28.1374 89.4426 28.0698 89.6994 27.9347C89.9585 27.7995 90.1579 27.608 90.2975 27.3602C90.4372 27.1102 90.507 26.8173 90.507 26.4817L90.7909 26.5256H88.9121V25.5457H91.7201V26.3769C91.7201 26.9694 91.5939 27.4819 91.3416 27.9144C91.0893 28.3469 90.7424 28.6803 90.3009 28.9146C89.8594 29.1466 89.3525 29.2626 88.7803 29.2626C88.1428 29.2626 87.583 29.1196 87.101 28.8335C86.6212 28.5451 86.2461 28.1363 85.9758 27.6069C85.7077 27.0753 85.5737 26.4445 85.5737 25.7146C85.5737 25.156 85.6525 24.657 85.8102 24.2177C85.9701 23.7785 86.1931 23.4057 86.4792 23.0993C86.7653 22.7907 87.101 22.5564 87.4862 22.3965C87.8714 22.2343 88.2904 22.1532 88.7432 22.1532C89.1261 22.1532 89.4832 22.2095 89.8143 22.3221C90.1455 22.4325 90.4394 22.5902 90.6962 22.7952C90.9553 23.0002 91.1682 23.2435 91.3349 23.525C91.5016 23.8066 91.6108 24.1175 91.6626 24.4577H90.3854ZM95.9008 26.9852V23.9778H97.124V29.168H95.938V28.2455H95.8839C95.7668 28.5361 95.5742 28.7738 95.3061 28.9585C95.0403 29.1432 94.7126 29.2356 94.3228 29.2356C93.9827 29.2356 93.682 29.1601 93.4206 29.0092C93.1616 28.856 92.9588 28.6341 92.8124 28.3435C92.666 28.0507 92.5928 27.697 92.5928 27.2825V23.9778H93.816V27.0933C93.816 27.4222 93.9061 27.6835 94.0863 27.8772C94.2665 28.0709 94.5031 28.1678 94.7959 28.1678C94.9761 28.1678 95.1507 28.1239 95.3196 28.036C95.4886 27.9482 95.6271 27.8175 95.7353 27.6441C95.8456 27.4684 95.9008 27.2487 95.9008 26.9852ZM98.0964 29.168V23.9778H99.3196V29.168H98.0964ZM98.7114 23.2412C98.5177 23.2412 98.351 23.177 98.2113 23.0486C98.0716 22.918 98.0018 22.7614 98.0018 22.5789C98.0018 22.3942 98.0716 22.2376 98.2113 22.1092C98.351 21.9786 98.5177 21.9133 98.7114 21.9133C98.9074 21.9133 99.0741 21.9786 99.2115 22.1092C99.3512 22.2376 99.421 22.3942 99.421 22.5789C99.421 22.7614 99.3512 22.918 99.2115 23.0486C99.0741 23.177 98.9074 23.2412 98.7114 23.2412ZM102.218 29.2592C101.81 29.2592 101.445 29.1545 101.123 28.945C100.801 28.7355 100.547 28.4314 100.36 28.0327C100.173 27.6339 100.079 27.1496 100.079 26.5797C100.079 26.003 100.174 25.5164 100.363 25.1199C100.554 24.7212 100.812 24.4205 101.137 24.2177C101.461 24.0128 101.823 23.9103 102.221 23.9103C102.526 23.9103 102.776 23.9621 102.972 24.0657C103.168 24.1671 103.323 24.2898 103.438 24.434C103.553 24.5759 103.642 24.71 103.705 24.8361H103.755V22.2478H104.982V29.168H103.779V28.3503H103.705C103.642 28.4764 103.55 28.6105 103.431 28.7524C103.312 28.892 103.154 29.0114 102.958 29.1106C102.762 29.2097 102.515 29.2592 102.218 29.2592ZM102.559 28.2557C102.818 28.2557 103.039 28.1858 103.222 28.0462C103.404 27.9042 103.543 27.7071 103.637 27.4548C103.732 27.2025 103.779 26.9086 103.779 26.5729C103.779 26.2373 103.732 25.9455 103.637 25.6978C103.545 25.45 103.407 25.2574 103.225 25.1199C103.045 24.9825 102.823 24.9138 102.559 24.9138C102.287 24.9138 102.059 24.9848 101.877 25.1267C101.694 25.2686 101.557 25.4646 101.465 25.7146C101.372 25.9647 101.326 26.2508 101.326 26.5729C101.326 26.8973 101.372 27.1868 101.465 27.4413C101.559 27.6936 101.698 27.893 101.88 28.0394C102.065 28.1836 102.291 28.2557 102.559 28.2557ZM108.298 29.2694C107.777 29.2694 107.328 29.1612 106.95 28.945C106.573 28.7265 106.284 28.4179 106.081 28.0191C105.878 27.6182 105.777 27.1462 105.777 26.6033C105.777 26.0694 105.878 25.6009 106.081 25.1977C106.286 24.7922 106.572 24.4768 106.939 24.2515C107.307 24.024 107.738 23.9103 108.234 23.9103C108.553 23.9103 108.855 23.9621 109.139 24.0657C109.425 24.1671 109.678 24.3247 109.896 24.5388C110.117 24.7528 110.29 25.0253 110.416 25.3565C110.543 25.6854 110.606 26.0773 110.606 26.5324V26.9074H106.351V26.083H109.433C109.431 25.8487 109.38 25.6403 109.281 25.4578C109.182 25.2731 109.043 25.1278 108.865 25.0219C108.69 24.9161 108.485 24.8631 108.25 24.8631C108 24.8631 107.781 24.924 107.592 25.0456C107.402 25.165 107.255 25.3227 107.149 25.5187C107.045 25.7124 106.992 25.9253 106.99 26.1573V26.877C106.99 27.1789 107.045 27.4379 107.156 27.6542C107.266 27.8682 107.42 28.0327 107.619 28.1475C107.817 28.2602 108.049 28.3165 108.315 28.3165C108.493 28.3165 108.654 28.2917 108.798 28.2421C108.942 28.1903 109.067 28.1149 109.173 28.0158C109.279 27.9166 109.359 27.7939 109.413 27.6474L110.555 27.7758C110.483 28.0777 110.345 28.3413 110.143 28.5665C109.942 28.7895 109.685 28.963 109.372 29.0869C109.059 29.2085 108.701 29.2694 108.298 29.2694Z" fill="black"/>
</g>
<defs>
<clipPath id="clip0_1_256">
<rect width="111" height="31" fill="white"/>
</clipPath>
</defs>
</svg>
