<svg width="323" height="86" viewBox="0 0 323 86" fill="none" xmlns="http://www.w3.org/2000/svg">
<g clip-path="url(#clip0_2098_753)">
<path d="M42.8813 85.5772C66.3288 85.5772 85.3367 66.578 85.3367 43.1411C85.3367 19.7043 66.3288 0.705078 42.8813 0.705078C19.4337 0.705078 0.425781 19.7043 0.425781 43.1411C0.425781 66.578 19.4337 85.5772 42.8813 85.5772Z" fill="#FFD900"/>
<path d="M126.802 30.312H119.468C119.327 30.312 119.044 30.453 119.044 30.7349V32.1448C119.044 32.5677 118.621 32.7087 118.48 32.2858C117.352 31.0169 115.095 29.748 111.569 29.748C104.093 29.748 99.0157 35.9513 99.0157 43.0005C99.0157 50.4726 104.517 56.253 111.569 56.253C114.954 56.253 117.07 55.1251 118.339 53.9972C118.48 53.8562 118.903 53.9972 118.903 54.1382V54.5612C118.903 59.4956 116.365 61.4694 112.133 61.4694C109.171 61.4694 106.914 59.6366 106.209 57.2399C106.209 57.0989 106.068 56.8169 105.786 57.0989L99.0157 59.0726C98.8746 59.0726 98.5925 59.2136 98.8746 59.4956C99.7209 64.289 104.799 68.9415 112.415 68.9415C122.571 68.9415 126.943 62.1743 126.943 54.4202V30.8759C127.084 30.453 126.943 30.312 126.802 30.312ZM113.12 49.0628C109.735 49.0628 107.196 46.8071 107.196 43.0005C107.196 39.3349 109.876 36.9382 113.12 36.9382C116.365 36.9382 119.044 39.194 119.044 43.0005C119.044 46.8071 116.506 49.0628 113.12 49.0628Z" fill="black"/>
<path d="M155.717 53.152V39.8996C155.717 34.4012 152.473 29.4668 143.587 29.4668C135.83 29.4668 132.162 34.2602 131.739 38.2078C131.739 38.3488 131.88 38.6307 132.162 38.6307L138.792 40.0406C138.933 40.0406 139.215 40.0406 139.215 39.6176C139.638 37.6438 141.189 35.952 143.869 35.952C146.549 35.952 147.819 37.3619 147.819 38.9127C147.819 39.7586 147.254 40.4635 145.844 40.7455L139.497 41.8734C135.124 42.5783 131.457 45.257 131.457 50.0504C131.457 54.2799 134.842 58.2275 140.907 58.2275C144.151 58.2275 146.408 56.9586 147.96 55.2668C148.101 55.1258 148.524 55.1258 148.524 55.4078C148.524 56.2537 148.665 56.8176 148.665 57.2406C148.665 57.3816 148.806 57.6635 149.088 57.6635H155.858C155.999 57.6635 156.281 57.5225 156.281 57.2406C155.717 56.3947 155.717 54.7029 155.717 53.152ZM147.537 46.8078C147.537 51.0373 144.998 52.1652 142.6 52.1652C140.343 52.1652 139.356 50.7553 139.356 49.3455C139.356 47.3717 140.625 46.6668 142.318 46.3848L147.113 45.6799C147.254 45.6799 147.537 45.8209 147.537 46.1029V46.8078Z" fill="black"/>
<path d="M193.234 29.3242C189.708 29.3242 187.169 30.4521 185.054 33.2718C184.913 33.4127 184.489 33.4127 184.489 33.2718C183.079 30.7341 180.399 29.6062 176.732 29.6062C174.052 29.6062 171.231 30.875 169.397 32.5668C169.256 32.7078 168.833 32.5668 168.833 32.4259V30.875C168.833 30.7341 168.692 30.4521 168.41 30.4521H161.075C160.934 30.4521 160.652 30.5931 160.652 30.875V57.38C160.652 57.5209 160.793 57.8029 161.075 57.8029H168.692C168.833 57.8029 169.115 57.6619 169.115 57.38V42.1537C169.115 39.616 170.667 37.3603 173.488 37.3603C176.45 37.3603 177.86 39.3341 177.86 42.0127V57.5209C177.86 57.6619 178.001 57.9439 178.283 57.9439H185.759C185.9 57.9439 186.182 57.8029 186.182 57.5209V42.2947C186.182 39.757 187.734 37.6423 190.837 37.6423C193.799 37.6423 195.068 39.616 195.068 42.2947V57.8029C195.068 57.9439 195.209 58.2259 195.491 58.2259H202.826C202.967 58.2259 203.249 58.0849 203.249 57.8029V40.6029C203.108 32.4259 198.312 29.3242 193.234 29.3242Z" fill="black"/>
<path d="M220.74 29.3242C213.687 29.3242 207.199 34.8226 207.199 43.7045C207.199 52.7275 213.97 58.2259 221.445 58.2259C228.215 58.2259 232.447 54.5603 233.857 49.9078C233.857 49.7668 233.857 49.4849 233.716 49.4849L227.51 47.6521C227.369 47.6521 227.087 47.6521 227.087 47.7931C226.241 49.7668 224.548 51.0357 221.727 51.0357C218.765 51.0357 216.085 49.0619 215.521 46.2423C215.521 46.1013 215.662 45.8193 215.944 45.8193H234.28C234.422 45.8193 234.704 45.6783 234.704 45.3963C234.704 44.8324 234.845 43.9865 234.845 43.1406C234.421 34.5406 229.203 29.3242 220.74 29.3242ZM225.818 40.6029H215.803C215.662 40.6029 215.38 40.4619 215.38 40.18C215.803 38.2062 217.496 35.9504 220.74 35.9504C224.407 35.9504 225.959 38.0652 226.241 40.18C226.241 40.3209 226.241 40.6029 225.818 40.6029Z" fill="black"/>
<path d="M254.592 29.6059C251.348 29.6059 248.668 30.7338 247.257 32.1436C247.116 32.2846 246.693 32.1436 246.693 32.0027V18.3272C246.693 18.1863 246.552 17.9043 246.27 17.9043H238.794C238.653 17.9043 238.371 18.0453 238.371 18.3272V57.2387C238.371 57.3797 238.512 57.6617 238.794 57.6617H246.129C246.27 57.6617 246.552 57.5207 246.552 57.2387V55.6879C246.552 55.2649 246.975 55.124 247.116 55.5469C248.527 57.0977 251.065 58.3666 254.168 58.3666C261.785 58.3666 267.145 52.3043 267.145 44.1272C267.286 35.5272 262.631 29.6059 254.592 29.6059ZM252.899 50.4715C249.655 50.4715 246.693 48.2158 246.693 43.7043C246.693 39.0518 249.655 36.9371 252.899 36.9371C256.143 36.9371 258.964 39.0518 258.964 43.7043C259.105 48.3568 256.002 50.4715 252.899 50.4715Z" fill="black"/>
<path d="M294.647 53.152V39.8996C294.647 34.4012 291.403 29.4668 282.517 29.4668C274.759 29.4668 271.092 34.2602 270.669 38.2078C270.669 38.3488 270.81 38.6307 271.092 38.6307L277.721 40.0406C277.862 40.0406 278.144 40.0406 278.144 39.6176C278.568 37.6438 280.119 35.952 282.799 35.952C285.479 35.952 286.748 37.3619 286.748 38.9127C286.748 39.7586 286.184 40.4635 284.774 40.7455L278.426 41.8734C274.054 42.5783 270.387 45.257 270.387 50.0504C270.387 54.2799 273.772 58.2275 279.837 58.2275C283.081 58.2275 285.338 56.9586 286.889 55.2668C287.03 55.1258 287.454 55.1258 287.454 55.4078C287.454 56.2537 287.595 56.8176 287.595 57.2406C287.595 57.3816 287.736 57.6635 288.018 57.6635H294.788C294.929 57.6635 295.211 57.5225 295.211 57.2406C294.647 56.3947 294.647 54.7029 294.647 53.152ZM286.466 46.8078C286.466 51.0373 283.927 52.1652 281.53 52.1652C279.273 52.1652 278.285 50.7553 278.285 49.3455C278.285 47.3717 279.555 46.6668 281.247 46.3848L286.043 45.6799C286.184 45.6799 286.466 45.8209 286.466 46.1029V46.8078Z" fill="black"/>
<path d="M307.766 17.9043H300.15C300.009 17.9043 299.727 18.0453 299.727 18.3272V57.2387C299.727 57.3797 299.868 57.6617 300.15 57.6617H307.766C307.907 57.6617 308.189 57.5207 308.189 57.2387V18.1863C308.048 18.0453 307.907 17.9043 307.766 17.9043Z" fill="black"/>
<path d="M321.591 17.9043H313.974C313.833 17.9043 313.551 18.0453 313.551 18.3272V57.2387C313.551 57.3797 313.692 57.6617 313.974 57.6617H321.591C321.732 57.6617 322.014 57.5207 322.014 57.2387V18.1863C321.873 18.0453 321.732 17.9043 321.591 17.9043Z" fill="black"/>
<path d="M62.4812 27.4916L42.3113 30.5932V29.6063C42.3113 28.1965 41.0419 27.2096 39.7725 27.4916L22.5646 30.1703C21.1541 30.4522 20.3078 31.8621 20.872 33.2719L25.5266 43.7047C25.8087 44.2686 25.8087 44.8326 25.5266 45.3965L21.2952 55.5473C20.5899 57.0981 22.0004 58.7899 23.693 58.649L42.4524 55.6883V56.6752C42.4524 58.085 43.7218 59.0719 44.9912 58.7899L63.1864 55.9703C64.3148 55.8293 65.0201 54.8424 65.0201 53.8555V29.6063C65.0201 28.3375 63.7506 27.2096 62.4812 27.4916Z" fill="#FC5819"/>
</g>
<defs>
<clipPath id="clip0_2098_753">
<rect width="323" height="86" fill="white"/>
</clipPath>
</defs>
</svg>
